<svg id="splitsvg" version="1.1" xmlns="http://www.w3.org/2000/svg" xmlns:xlink="http://www.w3.org/1999/xlink" width="1380" height="860"><g id="svgg"><path id="path0" d="M97.320 140.614 C 95.296 141.828,93.806 143.278,92.200 145.598 L 91.000 147.331 91.090 167.566 C 91.200 192.283,91.200 190.985,91.090 238.200 L 91.000 276.600 91.964 278.200 C 93.257 280.347,94.638 281.813,96.800 283.334 L 98.600 284.600 200.000 284.600 L 301.400 284.600 303.200 283.334 C 305.362 281.813,306.743 280.347,308.036 278.200 L 309.000 276.600 308.912 238.400 C 308.804 191.835,308.804 192.512,308.912 167.800 L 309.000 147.800 307.903 145.934 C 306.538 143.611,304.837 141.890,302.631 140.597 L 300.930 139.600 199.965 139.604 L 99.000 139.608 97.320 140.614 M218.403 176.600 C 222.618 179.518,224.022 181.669,224.660 186.185 C 225.618 192.956,224.994 204.422,223.571 206.192 C 221.943 208.216,218.688 211.204,217.301 211.946 C 216.108 212.585,183.892 212.585,182.699 211.946 C 181.312 211.204,178.057 208.216,176.429 206.192 C 174.139 203.343,174.368 184.928,176.737 181.432 C 180.864 175.343,181.226 175.254,201.435 175.337 L 216.670 175.400 218.403 176.600 M188.400 194.000 L 188.400 199.600 200.000 199.600 L 211.600 199.600 211.600 194.000 L 211.600 188.400 200.000 188.400 L 188.400 188.400 188.400 194.000  M -25 0 L -5 0 L -5 20 L -25 20 Z M 405 0 L 425 0 L 425 20 L 405 20 Z" stroke="none" fill="#f0633c" fill-rule="evenodd" transform="translate(30,0)"></path><path id="path1" d="M156.648 103.300 C 155.377 104.361,152.931 106.771,151.800 108.076 C 150.691 109.355,150.556 111.935,150.838 126.401 L 151.076 138.600 151.102 126.400 C 151.138 109.022,151.069 110.225,152.100 108.990 C 155.986 104.335,157.694 103.045,160.340 102.760 L 162.600 102.518 160.163 102.459 C 158.169 102.411,157.531 102.563,156.648 103.300 M239.660 102.760 C 242.153 103.028,242.630 103.338,246.144 106.974 C 249.478 110.424,249.346 109.723,249.515 124.885 L 249.665 138.370 263.332 138.485 C 270.850 138.548,277.043 138.587,277.095 138.572 C 277.147 138.557,270.892 132.233,263.195 124.520 C 254.699 116.006,249.200 110.199,249.200 109.740 C 249.200 109.325,248.147 107.909,246.861 106.593 C 242.956 102.598,242.605 102.392,239.837 102.459 L 237.400 102.518 239.660 102.760 M177.382 127.871 C 176.697 128.008,176.292 137.638,176.946 138.251 C 176.975 138.279,179.399 138.385,182.330 138.487 L 187.660 138.672 182.553 133.553 C 179.035 130.028,177.625 128.365,178.023 128.213 C 178.340 128.092,188.680 128.039,201.000 128.096 L 223.400 128.200 223.618 133.400 L 223.837 138.600 223.918 133.580 C 223.975 130.111,223.852 128.412,223.520 128.080 C 223.062 127.622,179.623 127.426,177.382 127.871 M309.577 147.339 C 310.205 148.992,310.167 278.136,309.538 279.326 C 308.826 280.672,307.437 282.166,304.808 284.414 L 303.417 285.605 200.908 285.502 C 144.529 285.446,98.400 285.444,98.400 285.498 C 98.400 285.551,118.488 305.678,143.041 330.224 C 167.593 354.769,187.566 374.967,187.426 375.107 C 187.081 375.452,181.613 375.237,178.400 374.752 C 176.970 374.537,173.820 374.126,171.400 373.839 C 168.980 373.552,166.010 373.033,164.800 372.686 C 163.590 372.338,161.194 371.862,159.475 371.627 C 157.756 371.393,156.008 371.018,155.591 370.795 C 155.173 370.572,153.430 370.101,151.716 369.748 C 150.002 369.396,148.150 368.880,147.600 368.602 C 147.050 368.324,145.970 367.977,145.200 367.831 C 144.430 367.685,142.630 367.148,141.200 366.639 C 139.770 366.129,137.700 365.400,136.600 365.019 C 131.395 363.216,130.327 362.794,129.505 362.219 C 129.019 361.878,128.340 361.600,127.996 361.600 C 127.651 361.600,126.671 361.244,125.817 360.809 C 124.964 360.374,123.621 359.811,122.833 359.558 C 122.045 359.306,121.118 358.854,120.774 358.554 C 120.430 358.255,119.530 357.800,118.774 357.544 C 118.018 357.287,116.939 356.757,116.376 356.365 C 115.812 355.974,114.865 355.531,114.272 355.382 C 113.678 355.233,113.088 354.942,112.959 354.734 C 112.831 354.527,111.798 353.916,110.663 353.377 C 109.528 352.838,107.700 351.873,106.600 351.233 C 105.500 350.593,104.060 349.812,103.400 349.497 C 102.740 349.182,101.953 348.626,101.651 348.262 C 101.349 347.898,100.868 347.600,100.582 347.600 C 100.296 347.600,99.533 347.155,98.886 346.611 C 98.240 346.067,97.281 345.434,96.756 345.203 C 96.230 344.972,95.080 344.241,94.200 343.578 C 92.687 342.438,90.580 340.939,88.609 339.600 C 87.620 338.928,84.606 336.557,80.290 333.055 C 73.406 327.469,66.039 320.300,57.832 311.200 C 56.421 309.636,49.320 300.745,48.400 299.391 C 47.093 297.468,45.570 295.324,44.428 293.800 C 43.768 292.920,42.856 291.570,42.401 290.800 C 41.945 290.030,41.048 288.590,40.406 287.600 C 38.674 284.930,34.895 278.371,33.914 276.332 C 31.821 271.984,29.893 268.105,29.574 267.600 C 29.365 267.270,28.998 266.550,28.757 266.000 C 28.517 265.450,27.888 264.082,27.360 262.960 C 26.832 261.838,26.400 260.686,26.400 260.400 C 26.400 260.114,25.971 258.962,25.447 257.840 C 23.911 254.553,22.765 251.543,22.234 249.400 C 21.962 248.300,21.443 246.834,21.081 246.142 C 20.719 245.450,20.303 244.100,20.156 243.142 C 20.009 242.184,19.643 240.912,19.342 240.316 C 19.042 239.719,18.538 238.005,18.222 236.506 C 17.907 235.008,17.442 233.246,17.188 232.591 C 16.934 231.936,16.470 229.718,16.157 227.662 C 15.844 225.607,15.392 223.559,15.154 223.113 C 14.915 222.667,14.471 220.029,14.167 217.251 C 13.552 211.634,12.924 208.232,12.846 210.100 C 12.771 211.902,12.142 211.352,11.703 209.100 C 11.389 207.489,11.297 209.910,11.310 219.500 C 11.320 227.252,11.473 232.000,11.712 232.000 C 11.924 232.000,11.874 232.270,11.600 232.600 C 11.191 233.093,11.223 233.200,11.780 233.200 C 12.397 233.200,12.401 233.256,11.825 233.832 C 11.477 234.180,11.307 234.649,11.446 234.875 C 11.607 235.136,11.825 235.088,12.044 234.743 C 12.318 234.310,12.389 234.307,12.394 234.724 C 12.397 235.012,12.580 235.136,12.800 235.000 C 13.194 234.756,13.390 236.898,13.269 240.120 C 13.237 240.956,13.374 241.540,13.572 241.417 C 13.770 241.295,13.723 241.749,13.468 242.426 C 13.064 243.494,13.100 243.712,13.735 244.068 C 14.266 244.365,14.406 244.769,14.244 245.539 C 14.030 246.557,14.039 246.564,14.472 245.700 C 14.720 245.205,15.097 244.800,15.310 244.800 C 15.555 244.800,15.552 244.984,15.300 245.300 C 15.082 245.575,14.980 246.160,15.074 246.600 C 15.168 247.040,15.257 248.612,15.271 250.094 C 15.285 251.576,15.454 252.690,15.648 252.570 C 15.842 252.451,16.000 252.543,16.000 252.776 C 16.000 253.009,15.850 253.200,15.667 253.200 C 15.484 253.200,15.370 253.605,15.415 254.100 C 15.460 254.595,15.700 254.955,15.948 254.900 C 16.197 254.845,16.400 254.974,16.400 255.187 C 16.400 255.401,16.631 255.486,16.913 255.378 C 17.294 255.232,17.399 255.657,17.319 257.027 C 17.259 258.042,17.389 259.205,17.606 259.612 C 17.869 260.102,17.867 260.435,17.601 260.599 C 17.380 260.736,17.204 261.062,17.209 261.324 C 17.214 261.586,17.589 261.350,18.044 260.800 C 18.498 260.250,18.753 260.025,18.611 260.300 C 18.469 260.575,18.554 260.800,18.800 260.800 C 19.046 260.800,19.124 261.000,18.972 261.245 C 18.821 261.489,18.946 261.847,19.249 262.039 C 19.685 262.315,19.654 262.389,19.100 262.394 C 18.715 262.397,18.397 262.175,18.394 261.900 C 18.390 261.557,18.272 261.582,18.020 261.981 C 17.532 262.752,17.834 263.168,18.715 262.938 C 19.350 262.772,19.418 263.020,19.329 265.190 C 19.263 266.806,19.370 267.542,19.647 267.371 C 19.899 267.215,20.012 267.441,19.933 267.938 C 19.860 268.392,19.980 268.764,20.200 268.764 C 20.420 268.764,20.558 268.367,20.507 267.882 C 20.455 267.397,20.673 267.680,20.990 268.511 C 21.307 269.343,21.464 270.288,21.340 270.611 C 21.216 270.935,21.324 271.200,21.581 271.200 C 21.837 271.200,21.968 271.335,21.871 271.500 C 21.542 272.058,22.370 273.600,22.997 273.600 C 23.511 273.600,23.585 273.988,23.417 275.800 C 23.259 277.509,23.338 278.000,23.769 278.000 C 24.128 278.000,24.251 278.283,24.116 278.800 C 23.994 279.265,24.104 279.600,24.377 279.600 C 24.636 279.600,24.744 279.432,24.617 279.228 C 24.491 279.023,24.598 278.725,24.855 278.566 C 25.148 278.385,25.216 278.450,25.038 278.738 C 24.881 278.992,24.898 279.200,25.076 279.200 C 25.254 279.200,25.383 279.782,25.362 280.493 C 25.302 282.502,25.587 283.157,26.449 282.990 C 26.874 282.909,27.116 283.012,26.987 283.221 C 26.858 283.429,26.956 283.600,27.203 283.600 C 27.481 283.600,27.550 283.927,27.384 284.450 C 27.178 285.100,27.242 285.223,27.657 284.973 C 28.085 284.716,28.103 284.769,27.740 285.223 C 27.233 285.859,28.037 287.002,28.622 286.476 C 28.790 286.324,28.804 286.417,28.651 286.683 C 28.499 286.948,28.065 287.068,27.687 286.950 C 27.118 286.772,27.133 286.843,27.776 287.367 C 28.315 287.806,28.637 287.864,28.826 287.557 C 29.223 286.915,29.434 287.574,29.416 289.400 C 29.398 291.168,30.088 292.205,31.038 291.841 C 31.500 291.664,31.622 291.830,31.524 292.502 C 31.453 292.996,31.647 293.598,31.958 293.839 C 32.416 294.196,32.423 294.338,31.999 294.601 C 31.631 294.828,31.572 294.768,31.800 294.400 C 32.010 294.061,31.967 293.973,31.679 294.151 C 31.435 294.302,31.336 294.689,31.459 295.011 C 31.583 295.332,31.825 295.508,31.997 295.402 C 32.169 295.296,32.530 295.475,32.800 295.800 C 33.070 296.125,33.448 296.294,33.640 296.175 C 33.836 296.054,33.845 296.348,33.662 296.843 C 33.285 297.864,33.527 299.600,34.047 299.600 C 34.241 299.600,34.400 299.380,34.400 299.111 C 34.400 298.842,34.680 299.022,35.023 299.512 C 35.366 300.001,35.535 300.581,35.400 300.801 C 35.264 301.020,35.343 301.200,35.576 301.200 C 35.809 301.200,35.979 301.335,35.953 301.500 C 35.754 302.760,36.059 303.663,36.612 303.451 C 37.175 303.235,37.952 305.151,37.685 306.100 C 37.638 306.265,37.881 306.400,38.224 306.400 C 38.567 306.400,38.737 306.222,38.603 306.005 C 38.468 305.787,38.608 305.705,38.913 305.822 C 39.553 306.068,39.669 307.200,39.053 307.200 C 38.806 307.200,38.833 307.393,39.120 307.680 C 39.384 307.944,39.600 308.481,39.600 308.872 C 39.600 309.299,40.002 309.686,40.600 309.836 C 41.239 309.996,41.600 310.368,41.600 310.867 C 41.600 311.296,41.780 311.536,42.000 311.400 C 42.220 311.264,42.400 311.328,42.400 311.543 C 42.400 311.758,42.175 312.039,41.900 312.169 C 41.625 312.298,41.892 312.338,42.493 312.259 C 43.461 312.130,43.560 312.219,43.355 313.037 C 43.180 313.736,43.471 314.319,44.553 315.433 C 45.339 316.242,45.886 317.061,45.768 317.252 C 45.649 317.444,45.968 317.618,46.476 317.640 C 47.388 317.679,47.387 317.684,46.400 318.000 C 45.441 318.307,45.437 318.322,46.300 318.360 C 46.920 318.388,47.200 318.649,47.200 319.200 C 47.200 319.640,47.370 320.000,47.577 320.000 C 47.784 320.000,47.884 320.365,47.798 320.811 C 47.712 321.257,47.812 321.516,48.021 321.387 C 48.229 321.258,48.403 321.388,48.406 321.676 C 48.411 322.072,48.501 322.059,48.776 321.626 C 49.078 321.148,49.246 321.140,49.774 321.579 C 50.259 321.981,50.302 322.236,49.956 322.653 C 49.610 323.070,49.632 323.201,50.051 323.206 C 50.484 323.211,50.473 323.299,50.000 323.623 C 49.467 323.988,49.467 324.026,50.000 323.969 C 51.180 323.843,51.600 324.009,51.600 324.600 C 51.600 324.930,51.791 325.200,52.024 325.200 C 52.257 325.200,52.319 325.408,52.162 325.662 C 51.993 325.936,52.051 326.015,52.306 325.858 C 52.984 325.439,53.951 326.685,53.730 327.693 C 53.570 328.420,53.615 328.481,53.959 328.000 C 54.236 327.612,54.390 327.572,54.394 327.887 C 54.398 328.184,54.674 328.272,55.100 328.113 C 55.716 327.882,55.734 327.932,55.243 328.534 C 54.753 329.137,54.770 329.186,55.390 328.949 C 55.981 328.722,56.045 328.831,55.796 329.639 C 55.634 330.168,55.637 330.471,55.803 330.314 C 56.243 329.897,57.600 330.728,57.600 331.414 C 57.600 331.736,57.791 332.000,58.024 332.000 C 58.257 332.000,58.336 332.180,58.200 332.400 C 58.064 332.620,58.173 332.800,58.443 332.800 C 58.713 332.800,58.813 332.920,58.666 333.068 C 58.519 333.215,58.697 333.665,59.061 334.068 C 59.756 334.836,60.626 335.089,60.200 334.400 C 60.064 334.180,60.047 334.000,60.162 334.000 C 60.278 334.000,60.576 334.382,60.826 334.848 C 61.138 335.432,61.144 335.613,60.844 335.427 C 60.575 335.261,60.498 335.390,60.643 335.767 C 60.771 336.101,61.084 336.335,61.338 336.287 C 61.592 336.239,61.745 336.455,61.677 336.768 C 61.572 337.258,61.650 337.258,62.252 336.768 C 62.869 336.266,62.920 336.279,62.695 336.880 C 62.501 337.398,62.602 337.499,63.120 337.305 C 63.721 337.080,63.734 337.131,63.232 337.748 C 62.762 338.326,62.758 338.424,63.214 338.323 C 63.516 338.255,63.794 338.425,63.832 338.700 C 63.869 338.975,63.944 339.335,63.997 339.500 C 64.051 339.665,64.069 339.948,64.037 340.130 C 64.006 340.311,64.177 340.338,64.417 340.189 C 64.658 340.041,64.755 339.660,64.634 339.343 C 64.466 338.906,64.573 338.857,65.077 339.139 C 65.443 339.344,65.802 339.936,65.875 340.456 C 65.948 340.975,66.036 341.617,66.070 341.882 C 66.105 342.148,66.296 342.265,66.494 342.142 C 66.692 342.019,66.748 341.642,66.618 341.303 C 66.423 340.794,66.487 340.774,66.986 341.189 C 67.319 341.465,67.509 341.823,67.409 341.985 C 67.309 342.147,67.571 342.647,67.990 343.097 C 68.409 343.547,68.633 344.034,68.488 344.179 C 68.343 344.324,68.545 344.319,68.936 344.169 C 69.454 343.970,69.708 344.127,69.871 344.748 C 69.993 345.217,70.263 345.600,70.470 345.600 C 70.678 345.600,70.736 345.780,70.600 346.000 C 70.248 346.569,70.942 346.496,71.549 345.900 C 71.828 345.625,72.023 345.580,71.981 345.800 C 71.939 346.020,71.949 346.335,72.003 346.500 C 72.161 346.989,72.297 347.573,72.350 348.000 C 72.417 348.537,73.600 348.515,73.600 347.976 C 73.600 347.743,73.792 347.672,74.027 347.817 C 74.262 347.962,74.365 348.315,74.255 348.601 C 74.048 349.141,74.664 349.188,75.458 348.691 C 75.712 348.533,76.022 348.681,76.154 349.023 C 76.289 349.377,76.222 349.537,75.995 349.397 C 75.778 349.263,75.600 349.333,75.600 349.553 C 75.600 349.773,75.783 350.066,76.007 350.204 C 76.230 350.342,76.328 350.593,76.224 350.761 C 76.120 350.929,76.280 351.067,76.579 351.067 C 76.900 351.067,77.035 350.806,76.908 350.433 C 76.765 350.012,76.896 350.062,77.302 350.583 C 77.637 351.014,77.871 351.554,77.821 351.783 C 77.772 352.012,77.807 352.065,77.899 351.900 C 77.991 351.735,78.242 351.600,78.457 351.600 C 78.672 351.600,78.736 351.780,78.600 352.000 C 78.464 352.220,78.723 352.400,79.176 352.400 C 79.909 352.400,80.184 352.803,80.052 353.686 C 80.029 353.843,80.277 353.868,80.605 353.743 C 80.932 353.617,81.200 353.724,81.200 353.981 C 81.200 354.237,81.368 354.343,81.573 354.217 C 81.778 354.090,82.273 354.538,82.672 355.214 C 83.167 356.052,83.625 356.382,84.115 356.254 C 84.663 356.111,84.778 356.239,84.600 356.799 C 84.341 357.617,85.693 358.800,86.889 358.800 C 87.280 358.800,87.579 358.935,87.553 359.100 C 87.406 360.028,87.734 360.362,88.900 360.475 C 89.678 360.550,90.160 360.801,90.100 361.100 C 90.045 361.375,90.315 361.603,90.700 361.606 C 91.302 361.611,91.316 361.670,90.800 362.024 C 90.303 362.365,90.338 362.419,91.000 362.341 C 92.460 362.169,93.691 362.810,93.476 363.632 C 93.306 364.280,93.392 364.325,94.088 363.953 C 94.677 363.638,94.822 363.641,94.622 363.965 C 94.452 364.240,94.812 364.502,95.565 364.653 C 96.234 364.787,96.988 365.145,97.240 365.448 C 97.811 366.137,97.150 366.179,96.430 365.500 C 96.002 365.096,95.935 365.116,96.083 365.600 C 96.184 365.930,96.611 366.252,97.033 366.316 C 99.356 366.666,99.683 366.840,99.479 367.619 C 99.365 368.057,99.442 368.298,99.655 368.166 C 99.864 368.037,100.332 368.172,100.694 368.466 C 101.164 368.847,101.267 368.857,101.053 368.500 C 100.888 368.225,100.943 368.000,101.176 368.000 C 101.409 368.000,101.600 368.199,101.600 368.443 C 101.600 368.686,101.870 368.782,102.200 368.655 C 102.530 368.529,102.800 368.599,102.800 368.813 C 102.800 369.026,102.598 369.200,102.351 369.200 C 102.042 369.200,102.059 369.389,102.404 369.805 C 102.796 370.278,103.031 370.307,103.476 369.937 C 103.833 369.641,103.999 369.624,103.923 369.892 C 103.855 370.128,103.980 370.320,104.200 370.320 C 104.420 370.320,104.542 370.118,104.470 369.871 C 104.399 369.624,104.684 369.733,105.103 370.112 C 105.522 370.491,105.985 370.681,106.132 370.534 C 106.391 370.276,106.579 371.384,106.414 372.200 C 106.370 372.420,106.467 372.467,106.630 372.303 C 106.793 372.140,107.169 372.209,107.467 372.455 C 107.766 372.704,108.612 372.805,109.368 372.683 C 110.937 372.428,111.388 372.691,110.733 373.480 C 110.384 373.901,110.399 374.150,110.796 374.517 C 111.177 374.870,111.246 374.873,111.052 374.528 C 110.906 374.268,110.970 373.942,111.193 373.804 C 111.417 373.666,111.600 373.803,111.600 374.108 C 111.600 374.483,112.046 374.649,112.970 374.619 C 113.724 374.594,114.271 374.685,114.187 374.821 C 113.666 375.664,115.355 376.830,116.935 376.718 C 118.179 376.630,118.571 376.739,118.484 377.149 C 118.405 377.520,118.600 377.617,119.084 377.448 C 119.707 377.231,119.699 377.276,119.024 377.799 C 118.464 378.232,118.408 378.402,118.824 378.405 C 119.141 378.408,119.850 378.530,120.400 378.675 C 121.336 378.922,121.362 378.890,120.807 378.169 C 120.233 377.425,120.240 377.423,121.039 378.101 C 121.493 378.486,121.985 378.681,122.132 378.534 C 122.280 378.387,122.400 378.717,122.400 379.267 C 122.400 380.513,122.775 380.919,123.428 380.377 C 123.775 380.089,124.008 380.090,124.188 380.381 C 124.331 380.611,124.627 380.800,124.847 380.800 C 125.067 380.800,125.112 380.575,124.947 380.300 C 124.707 379.901,124.771 379.900,125.260 380.297 C 125.597 380.570,125.984 380.682,126.120 380.547 C 126.255 380.412,126.688 380.426,127.083 380.579 C 127.758 380.841,127.753 380.893,127.000 381.467 C 126.244 382.044,126.271 382.063,127.500 381.807 C 128.533 381.592,128.754 381.654,128.580 382.109 C 128.407 382.559,128.752 382.666,130.204 382.612 C 131.983 382.545,132.702 382.994,132.731 384.190 C 132.736 384.405,132.959 384.653,133.226 384.742 C 133.545 384.848,133.597 384.715,133.379 384.352 C 133.105 383.898,133.157 383.890,133.672 384.307 C 134.016 384.585,134.816 384.785,135.449 384.750 C 137.298 384.649,138.000 384.773,138.000 385.200 C 138.000 385.420,137.838 385.555,137.640 385.500 C 137.309 385.408,137.200 385.593,137.200 386.249 C 137.200 386.386,137.446 386.294,137.747 386.044 C 138.163 385.699,138.415 385.736,138.800 386.200 C 139.185 386.664,139.437 386.701,139.853 386.356 C 140.270 386.010,140.401 386.032,140.406 386.451 C 140.411 386.882,140.495 386.871,140.800 386.400 C 141.103 385.932,141.189 385.920,141.194 386.347 C 141.198 386.696,141.490 386.818,142.002 386.684 C 142.603 386.526,142.863 386.714,143.044 387.434 C 143.177 387.962,143.455 388.290,143.662 388.162 C 143.890 388.021,143.865 387.720,143.600 387.400 C 143.019 386.700,143.828 386.159,144.554 386.762 C 144.840 386.999,145.221 387.060,145.401 386.897 C 145.581 386.733,145.599 386.825,145.441 387.100 C 145.282 387.375,145.343 387.600,145.576 387.600 C 145.809 387.600,145.955 387.802,145.900 388.050 C 145.845 388.297,146.050 388.591,146.356 388.702 C 146.673 388.817,146.801 388.725,146.654 388.487 C 146.375 388.036,147.399 388.065,147.855 388.522 C 148.328 388.995,148.863 388.828,148.565 388.300 C 148.339 387.900,148.390 387.900,148.821 388.300 C 149.118 388.575,149.684 388.800,150.080 388.800 C 150.476 388.800,150.800 388.991,150.800 389.224 C 150.800 389.457,150.980 389.536,151.200 389.400 C 151.420 389.264,151.600 389.444,151.600 389.800 C 151.600 390.205,151.413 390.339,151.100 390.159 C 150.825 390.001,150.740 390.026,150.912 390.214 C 151.357 390.704,152.400 390.799,152.400 390.351 C 152.400 390.115,152.664 390.112,153.100 390.344 C 153.485 390.548,154.430 390.712,155.200 390.707 C 158.394 390.688,159.844 390.983,160.931 391.874 C 162.382 393.063,163.141 393.083,161.903 391.900 C 161.385 391.405,161.240 391.204,161.580 391.453 C 162.695 392.267,164.145 392.545,167.800 392.644 C 169.780 392.698,171.548 392.755,171.729 392.771 C 171.909 392.787,171.773 393.085,171.425 393.432 C 171.077 393.780,170.907 394.249,171.046 394.475 C 171.207 394.736,171.425 394.688,171.644 394.343 C 171.925 393.900,171.991 393.910,172.007 394.400 C 172.021 394.856,172.180 394.808,172.667 394.200 C 173.187 393.550,173.262 393.531,173.066 394.100 C 172.934 394.485,172.999 394.800,173.213 394.800 C 173.426 394.800,173.603 394.575,173.606 394.300 C 173.611 393.940,173.711 393.956,173.964 394.355 C 174.205 394.737,174.671 394.823,175.457 394.631 C 176.086 394.477,177.140 394.280,177.800 394.193 L 179.000 394.035 177.800 394.367 C 177.129 394.552,186.917 394.699,200.000 394.699 C 213.083 394.699,222.871 394.552,222.200 394.367 L 221.000 394.035 222.200 394.193 C 222.860 394.280,223.914 394.477,224.543 394.631 C 225.329 394.823,225.795 394.737,226.036 394.355 C 226.289 393.956,226.389 393.940,226.394 394.300 C 226.397 394.575,226.574 394.800,226.787 394.800 C 227.001 394.800,227.066 394.485,226.934 394.100 C 226.738 393.531,226.813 393.550,227.333 394.200 C 227.820 394.808,227.979 394.856,227.993 394.400 C 228.009 393.910,228.075 393.900,228.356 394.343 C 228.575 394.688,228.793 394.736,228.954 394.475 C 229.093 394.249,228.923 393.780,228.575 393.432 C 228.227 393.085,228.091 392.787,228.271 392.771 C 228.452 392.755,230.220 392.698,232.200 392.644 C 235.855 392.545,237.305 392.267,238.420 391.453 C 238.760 391.204,238.615 391.405,238.097 391.900 C 236.859 393.083,237.618 393.063,239.069 391.874 C 240.156 390.983,241.606 390.688,244.800 390.707 C 245.570 390.712,246.515 390.548,246.900 390.344 C 247.336 390.112,247.600 390.115,247.600 390.351 C 247.600 390.799,248.643 390.704,249.088 390.214 C 249.260 390.026,249.175 390.001,248.900 390.159 C 248.587 390.339,248.400 390.205,248.400 389.800 C 248.400 389.444,248.580 389.264,248.800 389.400 C 249.020 389.536,249.200 389.457,249.200 389.224 C 249.200 388.991,249.524 388.800,249.920 388.800 C 250.316 388.800,250.882 388.575,251.179 388.300 C 251.610 387.900,251.661 387.900,251.435 388.300 C 251.137 388.828,251.672 388.995,252.145 388.522 C 252.601 388.065,253.625 388.036,253.346 388.487 C 253.199 388.725,253.327 388.817,253.644 388.702 C 253.950 388.591,254.155 388.298,254.100 388.050 C 254.045 387.803,254.191 387.600,254.424 387.600 C 254.657 387.600,254.718 387.375,254.559 387.100 C 254.401 386.825,254.419 386.733,254.599 386.897 C 254.779 387.060,255.160 386.999,255.446 386.762 C 256.172 386.159,256.981 386.700,256.400 387.400 C 256.135 387.720,256.110 388.021,256.338 388.162 C 256.545 388.290,256.823 387.962,256.956 387.434 C 257.137 386.714,257.397 386.526,257.998 386.684 C 258.510 386.818,258.802 386.696,258.806 386.347 C 258.811 385.920,258.897 385.932,259.200 386.400 C 259.505 386.871,259.589 386.882,259.594 386.451 C 259.599 386.032,259.730 386.010,260.147 386.356 C 260.563 386.701,260.815 386.664,261.200 386.200 C 261.567 385.758,261.847 385.707,262.217 386.014 C 262.573 386.310,262.808 386.311,262.988 386.019 C 263.233 385.623,262.972 385.446,262.300 385.553 C 262.135 385.579,262.000 385.420,262.000 385.200 C 262.000 384.773,262.702 384.649,264.551 384.750 C 265.184 384.785,265.984 384.585,266.328 384.307 C 266.843 383.890,266.895 383.898,266.621 384.352 C 266.403 384.715,266.455 384.848,266.774 384.742 C 267.041 384.653,267.264 384.404,267.269 384.190 C 267.298 383.006,268.019 382.545,269.740 382.610 C 271.159 382.663,271.481 382.556,271.304 382.093 C 271.123 381.622,271.340 381.564,272.440 381.794 C 273.720 382.061,273.753 382.042,273.000 381.467 C 272.247 380.893,272.242 380.841,272.917 380.579 C 273.312 380.426,273.745 380.412,273.880 380.547 C 274.016 380.682,274.403 380.570,274.740 380.297 C 275.229 379.900,275.293 379.901,275.053 380.300 C 274.888 380.575,274.933 380.800,275.153 380.800 C 275.373 380.800,275.669 380.611,275.812 380.381 C 275.992 380.090,276.225 380.089,276.572 380.377 C 277.225 380.919,277.600 380.513,277.600 379.267 C 277.600 378.717,277.720 378.387,277.868 378.534 C 278.015 378.681,278.507 378.486,278.961 378.101 C 279.760 377.423,279.767 377.425,279.193 378.169 C 278.638 378.890,278.664 378.922,279.600 378.675 C 280.150 378.530,280.859 378.408,281.176 378.405 C 281.592 378.402,281.536 378.232,280.976 377.799 C 280.301 377.276,280.293 377.231,280.916 377.448 C 281.400 377.617,281.595 377.520,281.516 377.149 C 281.433 376.757,281.858 376.597,283.000 376.588 C 284.043 376.581,284.565 376.407,284.500 376.088 C 284.369 375.446,285.073 375.456,285.341 376.100 C 285.456 376.375,285.516 376.161,285.475 375.624 C 285.408 374.750,285.557 374.648,286.900 374.644 C 287.895 374.641,288.400 374.456,288.400 374.096 C 288.400 373.797,288.583 373.666,288.807 373.804 C 289.030 373.942,289.094 374.268,288.948 374.528 C 288.754 374.873,288.823 374.870,289.204 374.517 C 289.601 374.150,289.616 373.901,289.267 373.480 C 288.612 372.691,289.063 372.428,290.632 372.683 C 291.388 372.805,292.234 372.704,292.533 372.455 C 292.831 372.209,293.207 372.140,293.370 372.303 C 293.533 372.467,293.630 372.420,293.586 372.200 C 293.328 370.920,293.651 370.509,294.900 370.529 C 295.795 370.543,296.162 370.381,296.077 370.007 C 295.981 369.582,296.078 369.567,296.524 369.937 C 296.969 370.307,297.204 370.278,297.596 369.805 C 297.941 369.389,297.958 369.200,297.649 369.200 C 297.402 369.200,297.200 369.026,297.200 368.813 C 297.200 368.599,297.470 368.529,297.800 368.655 C 298.130 368.782,298.400 368.686,298.400 368.443 C 298.400 368.199,298.591 368.000,298.824 368.000 C 299.057 368.000,299.112 368.225,298.947 368.500 C 298.733 368.857,298.836 368.847,299.306 368.466 C 299.668 368.172,300.136 368.037,300.345 368.166 C 300.558 368.298,300.635 368.057,300.521 367.619 C 300.317 366.840,300.644 366.666,302.967 366.316 C 303.389 366.252,303.816 365.930,303.917 365.600 C 304.065 365.116,303.998 365.096,303.570 365.500 C 302.850 366.179,302.189 366.137,302.760 365.448 C 303.012 365.145,303.766 364.787,304.435 364.653 C 305.188 364.502,305.548 364.240,305.378 363.965 C 305.178 363.641,305.323 363.638,305.912 363.953 C 306.608 364.325,306.694 364.280,306.524 363.632 C 306.309 362.810,307.540 362.169,309.000 362.341 C 309.662 362.419,309.697 362.365,309.200 362.024 C 308.684 361.670,308.698 361.611,309.300 361.606 C 309.685 361.603,309.955 361.375,309.900 361.100 C 309.840 360.801,310.322 360.550,311.100 360.475 C 312.266 360.362,312.594 360.028,312.447 359.100 C 312.421 358.935,312.662 358.800,312.981 358.800 C 314.252 358.800,315.655 357.853,315.464 357.124 C 315.337 356.636,315.496 356.400,315.951 356.400 C 316.323 356.400,316.948 355.857,317.341 355.193 C 317.733 354.529,318.222 354.090,318.427 354.217 C 318.632 354.343,318.800 354.237,318.800 353.981 C 318.800 353.724,319.068 353.617,319.395 353.743 C 319.723 353.868,319.971 353.843,319.948 353.686 C 319.816 352.803,320.091 352.400,320.824 352.400 C 321.277 352.400,321.536 352.220,321.400 352.000 C 321.264 351.780,321.328 351.600,321.543 351.600 C 321.758 351.600,322.009 351.735,322.101 351.900 C 322.193 352.065,322.228 352.012,322.179 351.783 C 322.129 351.554,322.363 351.014,322.698 350.583 C 323.104 350.062,323.235 350.012,323.092 350.433 C 322.965 350.806,323.100 351.067,323.421 351.067 C 323.720 351.067,323.880 350.929,323.776 350.761 C 323.672 350.593,323.770 350.342,323.993 350.204 C 324.217 350.066,324.400 349.773,324.400 349.553 C 324.400 349.333,324.222 349.263,324.005 349.397 C 323.787 349.532,323.705 349.392,323.822 349.087 C 323.939 348.783,324.289 348.533,324.600 348.533 C 324.910 348.533,325.091 348.653,325.000 348.800 C 324.909 348.947,325.080 349.067,325.379 349.067 C 325.679 349.067,325.839 348.845,325.735 348.574 C 325.631 348.303,325.738 347.962,325.973 347.817 C 326.208 347.672,326.400 347.743,326.400 347.976 C 326.400 348.209,326.670 348.400,327.000 348.400 C 327.522 348.400,327.800 347.877,327.500 347.461 C 327.212 347.062,328.548 346.082,329.095 346.292 C 329.517 346.454,329.634 346.378,329.442 346.068 C 329.283 345.811,329.322 345.600,329.530 345.600 C 329.737 345.600,330.007 345.217,330.129 344.748 C 330.292 344.127,330.546 343.970,331.064 344.169 C 331.455 344.319,331.657 344.324,331.512 344.179 C 331.367 344.034,331.591 343.547,332.010 343.097 C 332.429 342.647,332.691 342.147,332.591 341.985 C 332.491 341.823,332.681 341.465,333.014 341.189 C 333.513 340.774,333.577 340.794,333.382 341.303 C 333.252 341.642,333.308 342.019,333.506 342.142 C 333.704 342.265,333.895 342.148,333.930 341.882 C 333.964 341.617,334.052 340.975,334.125 340.456 C 334.198 339.936,334.557 339.344,334.923 339.139 C 335.427 338.857,335.534 338.906,335.366 339.343 C 335.245 339.660,335.342 340.041,335.583 340.189 C 335.823 340.338,335.994 340.311,335.963 340.130 C 335.931 339.948,335.949 339.665,336.003 339.500 C 336.056 339.335,336.131 338.975,336.168 338.700 C 336.206 338.425,336.484 338.255,336.786 338.323 C 337.242 338.424,337.238 338.326,336.768 337.748 C 336.266 337.131,336.279 337.080,336.880 337.305 C 337.398 337.499,337.499 337.398,337.305 336.880 C 337.080 336.279,337.131 336.266,337.748 336.768 C 338.350 337.258,338.428 337.258,338.323 336.768 C 338.255 336.455,338.408 336.239,338.662 336.287 C 338.916 336.335,339.229 336.101,339.357 335.767 C 339.502 335.390,339.425 335.261,339.156 335.427 C 338.856 335.613,338.862 335.432,339.174 334.848 C 339.424 334.382,339.722 334.000,339.838 334.000 C 339.953 334.000,339.936 334.180,339.800 334.400 C 339.374 335.089,340.244 334.836,340.939 334.068 C 341.303 333.665,341.481 333.215,341.334 333.068 C 341.187 332.920,341.287 332.800,341.557 332.800 C 341.827 332.800,341.936 332.620,341.800 332.400 C 341.664 332.180,341.743 332.000,341.976 332.000 C 342.209 332.000,342.400 331.736,342.400 331.414 C 342.400 330.728,343.757 329.897,344.197 330.314 C 344.363 330.471,344.366 330.168,344.204 329.639 C 343.955 328.831,344.019 328.722,344.610 328.949 C 345.230 329.186,345.247 329.137,344.757 328.534 C 344.266 327.932,344.284 327.882,344.900 328.113 C 345.326 328.272,345.602 328.184,345.606 327.887 C 345.610 327.572,345.764 327.612,346.041 328.000 C 346.385 328.481,346.430 328.420,346.270 327.693 C 346.049 326.685,347.016 325.439,347.694 325.858 C 347.949 326.015,348.007 325.936,347.838 325.662 C 347.681 325.408,347.743 325.200,347.976 325.200 C 348.209 325.200,348.400 324.930,348.400 324.600 C 348.400 324.009,348.820 323.843,350.000 323.969 C 350.533 324.026,350.533 323.988,350.000 323.623 C 349.527 323.299,349.516 323.211,349.949 323.206 C 350.368 323.201,350.390 323.070,350.044 322.653 C 349.698 322.236,349.741 321.981,350.226 321.579 C 350.754 321.140,350.922 321.148,351.224 321.626 C 351.499 322.059,351.589 322.072,351.594 321.676 C 351.597 321.388,351.771 321.258,351.979 321.387 C 352.188 321.516,352.288 321.257,352.202 320.811 C 352.116 320.365,352.216 320.000,352.423 320.000 C 352.630 320.000,352.800 319.640,352.800 319.200 C 352.800 318.649,353.080 318.388,353.700 318.360 C 354.563 318.322,354.559 318.307,353.600 318.000 C 352.613 317.684,352.612 317.679,353.524 317.640 C 354.032 317.618,354.351 317.444,354.232 317.252 C 354.114 317.061,354.661 316.242,355.447 315.433 C 356.529 314.319,356.820 313.736,356.645 313.037 C 356.440 312.219,356.539 312.130,357.507 312.259 C 358.108 312.338,358.375 312.298,358.100 312.169 C 357.825 312.039,357.600 311.758,357.600 311.543 C 357.600 311.328,357.780 311.264,358.000 311.400 C 358.220 311.536,358.400 311.296,358.400 310.867 C 358.400 310.368,358.761 309.996,359.400 309.836 C 359.998 309.686,360.400 309.299,360.400 308.872 C 360.400 308.481,360.616 307.944,360.880 307.680 C 361.167 307.393,361.194 307.200,360.947 307.200 C 360.331 307.200,360.447 306.068,361.087 305.822 C 361.392 305.705,361.532 305.787,361.397 306.005 C 361.263 306.222,361.433 306.400,361.776 306.400 C 362.119 306.400,362.362 306.265,362.315 306.100 C 362.048 305.151,362.825 303.235,363.388 303.451 C 363.941 303.663,364.246 302.760,364.047 301.500 C 364.021 301.335,364.160 301.200,364.356 301.200 C 364.551 301.200,364.686 300.885,364.656 300.500 C 364.621 300.067,364.926 299.754,365.458 299.678 C 366.432 299.539,366.844 298.211,366.338 296.843 C 366.155 296.348,366.164 296.054,366.360 296.175 C 366.552 296.294,366.930 296.125,367.200 295.800 C 367.470 295.475,367.831 295.296,368.003 295.402 C 368.175 295.508,368.417 295.332,368.541 295.011 C 368.664 294.689,368.565 294.302,368.321 294.151 C 368.033 293.973,367.990 294.061,368.200 294.400 C 368.428 294.768,368.369 294.828,368.001 294.601 C 367.576 294.338,367.583 294.196,368.039 293.839 C 368.348 293.598,368.582 292.905,368.560 292.300 C 368.535 291.623,368.727 291.200,369.060 291.200 C 369.357 291.200,369.600 291.416,369.600 291.680 C 369.600 292.053,369.707 292.053,370.080 291.680 C 370.441 291.319,370.447 291.087,370.100 290.740 C 369.754 290.394,369.786 290.000,370.229 289.145 C 370.552 288.520,370.813 287.916,370.808 287.804 C 370.781 287.116,370.846 287.054,371.130 287.500 C 371.382 287.897,371.598 287.889,372.180 287.464 C 372.856 286.970,372.860 286.909,372.235 286.669 C 371.785 286.496,371.653 286.562,371.841 286.866 C 372.017 287.150,371.946 287.214,371.655 287.034 C 371.058 286.665,371.454 286.000,372.273 286.000 C 372.810 286.000,372.820 285.904,372.349 285.323 C 371.894 284.763,371.893 284.703,372.343 284.973 C 372.758 285.223,372.822 285.100,372.616 284.450 C 372.450 283.927,372.519 283.600,372.797 283.600 C 373.044 283.600,373.142 283.429,373.013 283.221 C 372.884 283.012,373.126 282.909,373.551 282.990 C 374.413 283.157,374.698 282.502,374.638 280.493 C 374.617 279.782,374.746 279.200,374.924 279.200 C 375.102 279.200,375.119 278.992,374.962 278.738 C 374.784 278.450,374.852 278.385,375.145 278.566 C 375.402 278.725,375.509 279.023,375.383 279.228 C 375.256 279.432,375.343 279.600,375.576 279.600 C 376.343 279.600,376.018 278.381,375.167 278.066 C 374.373 277.772,374.386 277.735,375.435 277.257 C 376.416 276.810,376.479 276.823,376.018 277.378 C 375.588 277.897,375.609 278.000,376.144 278.000 C 376.681 278.000,376.753 277.638,376.583 275.800 C 376.419 274.026,376.495 273.600,376.976 273.600 C 377.764 273.600,378.466 272.239,378.131 271.363 C 377.934 270.850,378.004 270.755,378.400 271.000 C 378.790 271.241,378.867 271.153,378.685 270.677 C 378.547 270.317,378.693 269.343,379.010 268.511 C 379.327 267.680,379.548 267.360,379.500 267.800 C 379.452 268.240,379.590 268.617,379.807 268.639 C 380.023 268.660,380.140 268.325,380.067 267.895 C 379.986 267.413,380.101 267.215,380.367 267.380 C 380.605 267.527,380.800 267.372,380.800 267.036 C 380.800 266.629,380.566 266.506,380.100 266.666 C 379.456 266.888,379.457 266.863,380.119 266.345 C 380.654 265.927,380.796 265.390,380.671 264.258 C 380.524 262.926,380.597 262.758,381.251 262.929 C 382.163 263.168,382.474 262.762,381.980 261.981 C 381.728 261.582,381.610 261.557,381.606 261.900 C 381.603 262.175,381.285 262.397,380.900 262.394 C 380.346 262.389,380.315 262.315,380.751 262.039 C 381.054 261.847,381.179 261.489,381.028 261.245 C 380.876 261.000,380.954 260.800,381.200 260.800 C 381.446 260.800,381.531 260.575,381.389 260.300 C 381.247 260.025,381.502 260.250,381.956 260.800 C 382.411 261.350,382.786 261.586,382.791 261.324 C 382.796 261.062,382.620 260.736,382.399 260.599 C 382.133 260.435,382.131 260.102,382.394 259.612 C 382.611 259.205,382.741 258.042,382.681 257.027 C 382.601 255.657,382.706 255.232,383.087 255.378 C 383.369 255.486,383.600 255.401,383.600 255.187 C 383.600 254.974,383.825 254.845,384.100 254.900 C 384.703 255.021,384.798 253.524,384.214 253.100 C 383.929 252.894,383.930 252.706,384.216 252.500 C 384.445 252.335,384.659 251.300,384.691 250.200 C 384.841 245.069,384.908 244.687,385.482 245.687 C 386.002 246.593,386.005 246.592,385.770 245.539 C 385.596 244.760,385.728 244.368,386.265 244.068 C 386.900 243.712,386.936 243.494,386.532 242.426 C 386.277 241.749,386.230 241.295,386.428 241.417 C 386.626 241.540,386.763 240.956,386.731 240.120 C 386.610 236.898,386.806 234.756,387.200 235.000 C 387.420 235.136,387.603 235.012,387.606 234.724 C 387.611 234.307,387.682 234.310,387.956 234.743 C 388.175 235.088,388.393 235.136,388.554 234.875 C 388.693 234.649,388.523 234.180,388.175 233.832 C 387.599 233.256,387.603 233.200,388.220 233.200 C 388.777 233.200,388.809 233.093,388.400 232.600 C 388.126 232.270,388.080 232.000,388.297 232.000 C 388.548 232.000,388.708 227.715,388.734 220.300 L 388.775 208.600 389.687 208.718 C 390.420 208.813,390.482 208.755,390.000 208.424 C 389.461 208.054,389.702 207.827,390.500 207.953 C 390.959 208.025,390.857 207.417,390.320 206.880 C 389.947 206.507,389.958 206.400,390.369 206.400 C 390.794 206.400,390.800 206.282,390.400 205.800 C 389.165 204.312,388.205 205.988,388.051 209.900 C 388.023 210.615,387.800 211.200,387.555 211.200 C 387.289 211.200,387.179 210.724,387.282 210.021 C 387.377 209.373,387.328 208.921,387.172 209.017 C 386.828 209.230,386.541 210.936,385.962 216.200 C 385.462 220.755,385.326 221.022,383.848 220.349 C 383.258 220.080,366.210 203.292,345.964 183.043 C 324.745 161.820,309.333 146.697,309.577 147.339 M9.600 203.800 C 9.256 204.215,9.241 204.400,9.551 204.400 C 9.798 204.400,10.000 204.190,10.000 203.933 C 10.000 203.677,10.104 203.571,10.232 203.699 C 10.360 203.826,10.178 204.366,9.830 204.899 C 9.288 205.725,9.281 205.867,9.780 205.867 C 10.102 205.867,10.272 205.717,10.159 205.533 C 9.971 205.229,10.554 205.035,11.300 205.153 C 11.803 205.232,11.635 204.378,11.029 203.771 C 10.315 203.058,10.214 203.060,9.600 203.800 M389.829 206.790 C 389.829 207.225,389.597 207.669,389.314 207.778 C 388.781 207.982,388.580 206.754,389.067 206.267 C 389.544 205.789,389.829 205.984,389.829 206.790 M25.432 277.901 C 25.149 278.184,23.600 277.575,23.600 277.182 C 23.600 276.981,24.051 277.023,24.602 277.274 C 25.153 277.525,25.526 277.807,25.432 277.901 M159.733 392.200 C 159.733 392.542,159.897 392.768,160.097 392.701 C 160.297 392.635,160.460 392.409,160.460 392.200 C 160.460 391.991,160.297 391.765,160.097 391.699 C 159.897 391.632,159.733 391.858,159.733 392.200 M239.478 391.856 C 239.179 392.155,239.506 392.800,239.957 392.800 C 240.127 392.800,240.267 392.530,240.267 392.200 C 240.267 391.573,239.914 391.419,239.478 391.856  M -25 0 L -5 0 L -5 20 L -25 20 Z M 405 0 L 425 0 L 425 20 L 405 20 Z" stroke="none" fill="#cca434" fill-rule="evenodd" transform="translate(490,0)"></path><path id="path2" d="M159.800 103.536 C 157.222 104.386,154.210 107.171,152.634 110.160 L 151.600 112.119 151.606 125.160 C 151.609 132.332,151.757 138.428,151.934 138.706 C 152.183 139.100,154.836 139.189,163.827 139.106 L 175.400 139.000 175.512 133.626 C 175.577 130.500,175.807 128.033,176.061 127.726 C 176.413 127.302,181.100 127.200,200.241 127.200 L 223.985 127.200 224.194 128.100 C 224.310 128.595,224.448 131.250,224.502 134.000 L 224.600 139.000 236.400 139.000 L 248.200 139.000 248.200 124.760 L 248.200 110.519 246.284 108.277 C 245.230 107.044,243.520 105.442,242.484 104.718 L 240.600 103.400 200.600 103.336 C 178.600 103.301,160.240 103.391,159.800 103.536 M182.000 177.162 C 179.900 178.500,178.115 180.353,176.763 182.600 C 175.307 185.018,175.257 203.199,176.700 205.150 C 177.195 205.820,177.600 206.518,177.600 206.703 C 177.600 207.122,180.143 209.495,182.000 210.809 L 183.400 211.800 200.000 211.800 L 216.600 211.800 218.000 210.809 C 219.857 209.495,222.400 207.122,222.400 206.703 C 222.400 206.518,222.805 205.820,223.300 205.150 C 224.176 203.965,224.200 203.671,224.200 194.066 L 224.200 184.200 223.120 182.400 C 221.879 180.331,219.644 178.108,217.553 176.862 C 216.134 176.017,215.786 176.000,199.953 176.008 L 183.800 176.015 182.000 177.162 M211.669 188.262 C 212.566 189.075,212.781 198.659,211.920 199.520 C 211.235 200.205,188.765 200.205,188.080 199.520 C 187.276 198.716,187.430 189.251,188.262 188.331 C 189.226 187.266,210.498 187.203,211.669 188.262  M -25 0 L -5 0 L -5 20 L -25 20 Z M 405 0 L 425 0 L 425 20 L 405 20 Z" stroke="none" fill="#344c5b" fill-rule="evenodd" transform="translate(950,0)"></path><path id="path3" d="M170.800 0.600 C 170.800 1.127,162.153 1.600,159.300 1.230 C 159.014 1.193,158.800 1.600,158.800 2.182 C 158.800 3.191,158.771 3.200,155.300 3.246 C 150.715 3.307,150.699 3.309,150.483 3.956 C 150.356 4.333,150.473 4.411,150.848 4.199 C 151.251 3.972,151.238 4.061,150.800 4.527 C 150.349 5.009,149.292 5.190,146.541 5.258 C 143.501 5.334,142.921 5.449,143.109 5.940 C 143.256 6.323,143.171 6.429,142.868 6.242 C 142.587 6.068,142.400 6.202,142.400 6.576 C 142.400 7.155,139.397 7.524,137.222 7.212 C 136.734 7.142,136.727 7.231,137.178 7.774 C 137.642 8.333,137.617 8.381,136.987 8.140 C 136.427 7.925,136.318 8.010,136.510 8.510 C 136.717 9.050,136.408 9.180,134.680 9.280 C 132.871 9.384,132.583 9.517,132.472 10.300 C 132.348 11.173,130.875 11.440,126.916 11.310 C 126.649 11.301,126.446 11.408,126.463 11.547 C 126.631 12.888,126.321 13.161,124.500 13.278 C 122.879 13.382,122.581 13.532,122.472 14.300 C 122.360 15.092,122.112 15.200,120.400 15.200 C 118.688 15.200,118.440 15.308,118.328 16.100 C 118.219 16.863,117.896 17.030,116.200 17.200 C 114.532 17.367,114.200 17.533,114.203 18.200 C 114.205 18.867,113.873 19.033,112.203 19.200 C 111.015 19.319,110.180 19.604,110.150 19.900 C 110.123 20.175,110.078 20.580,110.050 20.800 C 110.022 21.020,109.291 21.200,108.424 21.200 C 106.957 21.200,106.221 21.660,106.206 22.584 C 106.203 22.795,105.640 23.082,104.956 23.222 C 103.508 23.518,101.886 24.553,102.269 24.936 C 102.537 25.204,101.560 25.348,100.316 25.224 C 99.216 25.113,98.000 25.961,98.000 26.838 C 98.000 27.283,97.836 27.546,97.636 27.422 C 97.002 27.031,96.000 27.656,96.000 28.443 C 96.000 29.021,95.710 29.200,94.776 29.200 C 94.103 29.200,93.644 29.348,93.757 29.530 C 93.869 29.711,93.582 29.846,93.121 29.830 C 92.659 29.813,92.193 30.054,92.086 30.364 C 91.944 30.775,92.095 30.850,92.645 30.640 C 93.148 30.449,93.266 30.486,93.000 30.752 C 92.780 30.971,92.060 31.221,91.400 31.307 C 90.537 31.420,90.164 31.707,90.072 32.332 C 89.961 33.088,89.335 33.411,88.300 33.247 C 88.135 33.221,88.000 33.370,88.000 33.577 C 88.000 33.784,87.644 33.885,87.208 33.802 C 86.773 33.718,86.312 33.818,86.185 34.025 C 86.057 34.231,86.278 34.409,86.676 34.421 C 87.083 34.432,86.767 34.704,85.955 35.042 C 85.160 35.372,84.309 36.083,84.063 36.621 C 83.804 37.190,83.278 37.600,82.809 37.600 C 82.219 37.600,82.000 37.863,82.000 38.572 C 82.000 39.276,81.751 39.580,81.100 39.672 C 80.522 39.754,80.154 40.122,80.072 40.700 C 79.982 41.334,79.657 41.615,78.972 41.650 C 78.437 41.678,77.612 41.723,77.138 41.750 C 76.630 41.779,76.232 42.103,76.168 42.537 C 76.033 43.456,75.859 43.631,74.937 43.775 C 74.484 43.845,74.211 44.208,74.228 44.714 C 74.250 45.342,73.936 45.598,72.907 45.791 C 71.808 45.997,71.580 46.207,71.679 46.917 C 71.755 47.467,71.578 47.806,71.200 47.834 C 69.832 47.934,69.600 48.020,69.600 48.424 C 69.600 48.657,69.808 48.719,70.062 48.562 C 70.352 48.383,70.415 48.452,70.231 48.750 C 70.070 49.010,69.368 49.473,68.669 49.779 C 67.971 50.085,67.638 50.349,67.929 50.367 C 68.757 50.419,67.375 51.637,66.406 51.710 C 65.965 51.743,65.624 51.957,65.649 52.185 C 65.768 53.265,65.524 53.600,64.623 53.600 C 63.851 53.600,63.679 53.773,63.805 54.427 C 63.925 55.052,63.675 55.355,62.782 55.666 C 61.904 55.972,61.600 56.332,61.600 57.064 C 61.600 57.857,61.424 58.026,60.700 57.925 C 60.030 57.832,59.768 58.024,59.675 58.675 C 59.598 59.221,59.221 59.598,58.675 59.675 C 58.024 59.768,57.832 60.030,57.925 60.700 C 58.018 61.367,57.849 61.600,57.274 61.600 C 56.422 61.600,55.330 62.663,55.750 63.083 C 55.895 63.228,55.470 63.575,54.807 63.854 C 54.143 64.133,53.600 64.556,53.600 64.795 C 53.600 65.105,53.856 65.104,54.500 64.791 L 55.400 64.355 54.500 65.142 C 54.005 65.574,53.600 66.304,53.600 66.764 C 53.600 67.389,53.348 67.600,52.600 67.600 C 51.751 67.600,51.600 67.785,51.600 68.824 C 51.600 69.497,51.436 69.946,51.236 69.822 C 50.543 69.394,49.600 70.090,49.600 71.030 C 49.600 71.732,49.435 71.912,48.960 71.729 C 48.219 71.445,47.615 72.219,47.606 73.465 C 47.602 74.063,47.384 74.294,46.900 74.216 C 45.837 74.045,45.349 74.497,46.227 74.841 C 46.866 75.091,46.883 75.149,46.325 75.172 C 45.866 75.191,45.611 75.610,45.525 76.484 C 45.439 77.366,45.149 77.836,44.600 77.984 C 44.160 78.103,43.739 78.560,43.663 79.000 C 43.588 79.440,43.363 79.860,43.163 79.933 C 42.964 80.007,42.800 80.322,42.800 80.633 C 42.800 80.945,42.530 81.200,42.200 81.200 C 41.781 81.200,41.600 81.622,41.600 82.600 C 41.600 83.918,41.297 84.194,39.983 84.075 C 39.864 84.064,39.740 84.398,39.709 84.817 C 39.677 85.237,39.190 86.077,38.626 86.686 C 38.062 87.294,37.573 88.064,37.539 88.396 C 37.506 88.728,37.458 89.270,37.434 89.600 C 37.406 89.982,37.067 90.155,36.498 90.075 C 35.829 89.982,35.666 90.107,35.846 90.575 C 35.978 90.919,35.878 91.200,35.625 91.200 C 35.372 91.200,35.194 91.425,35.230 91.700 C 35.429 93.235,35.148 93.952,34.300 94.072 C 33.526 94.182,33.396 94.449,33.371 95.976 C 33.346 97.549,33.216 97.795,32.239 98.120 C 31.369 98.410,31.182 98.672,31.353 99.356 C 31.680 100.659,31.256 101.785,30.275 102.216 C 29.616 102.505,29.351 103.044,29.200 104.400 C 29.085 105.433,28.787 106.217,28.500 106.240 C 28.225 106.262,27.855 106.307,27.678 106.340 C 27.501 106.373,27.312 107.160,27.257 108.090 C 27.161 109.706,26.600 110.571,25.919 110.150 C 25.744 110.042,25.577 110.143,25.550 110.376 C 25.522 110.609,25.455 110.980,25.400 111.200 C 25.345 111.420,25.278 112.134,25.250 112.787 C 25.214 113.642,24.892 114.141,24.100 114.571 C 23.492 114.901,23.268 115.178,23.600 115.190 C 24.083 115.208,24.095 115.279,23.666 115.551 C 23.372 115.737,23.147 116.004,23.166 116.145 C 23.490 118.564,23.131 120.354,22.300 120.472 C 21.537 120.581,21.370 120.904,21.200 122.600 C 21.029 124.310,20.887 124.580,20.222 124.464 C 19.574 124.352,19.526 124.429,19.935 124.922 C 20.329 125.397,20.310 125.633,19.838 126.105 C 19.514 126.429,19.192 127.573,19.124 128.647 C 19.027 130.181,18.861 130.577,18.355 130.495 C 17.864 130.415,17.755 130.632,17.901 131.395 C 18.017 132.001,17.909 132.400,17.629 132.400 C 17.374 132.400,17.194 132.625,17.230 132.900 C 17.630 135.983,17.155 138.725,16.177 138.970 C 15.532 139.132,15.180 139.480,15.223 139.913 C 15.592 143.590,15.170 146.662,14.300 146.632 C 13.566 146.606,13.394 146.822,13.368 147.800 C 13.351 148.460,13.306 151.205,13.268 153.900 L 13.200 158.800 12.220 158.800 L 11.240 158.800 11.211 171.676 C 11.181 185.002,11.182 184.986,10.072 184.995 C 9.028 185.003,9.100 188.622,10.145 188.701 C 10.555 188.732,10.944 188.812,11.009 188.879 C 11.290 189.166,11.339 206.251,11.060 206.702 C 10.891 206.976,10.927 207.200,11.139 207.200 C 11.351 207.200,11.649 208.100,11.800 209.200 C 12.094 211.339,12.770 211.921,12.846 210.100 C 12.924 208.232,13.552 211.634,14.167 217.251 C 14.471 220.029,14.915 222.667,15.154 223.113 C 15.392 223.559,15.844 225.607,16.157 227.662 C 16.470 229.718,16.934 231.936,17.188 232.591 C 17.442 233.246,17.907 235.008,18.222 236.506 C 18.538 238.005,19.042 239.719,19.342 240.316 C 19.643 240.912,20.009 242.184,20.156 243.142 C 20.303 244.100,20.719 245.450,21.081 246.142 C 21.443 246.834,21.962 248.300,22.234 249.400 C 22.765 251.543,23.911 254.553,25.447 257.840 C 25.971 258.962,26.400 260.114,26.400 260.400 C 26.400 260.686,26.832 261.838,27.360 262.960 C 27.888 264.082,28.517 265.450,28.757 266.000 C 28.998 266.550,29.365 267.270,29.574 267.600 C 29.893 268.105,31.821 271.984,33.914 276.332 C 34.895 278.371,38.674 284.930,40.406 287.600 C 41.048 288.590,41.945 290.030,42.401 290.800 C 42.856 291.570,43.768 292.920,44.428 293.800 C 45.570 295.324,47.093 297.468,48.400 299.391 C 49.320 300.745,56.421 309.636,57.832 311.200 C 66.039 320.300,73.406 327.469,80.290 333.055 C 84.606 336.557,87.620 338.928,88.609 339.600 C 90.580 340.939,92.687 342.438,94.200 343.578 C 95.080 344.241,96.230 344.972,96.756 345.203 C 97.281 345.434,98.240 346.067,98.886 346.611 C 99.533 347.155,100.296 347.600,100.582 347.600 C 100.868 347.600,101.349 347.898,101.651 348.262 C 101.953 348.626,102.740 349.182,103.400 349.497 C 104.060 349.812,105.500 350.593,106.600 351.233 C 107.700 351.873,109.528 352.838,110.663 353.377 C 111.798 353.916,112.831 354.527,112.959 354.734 C 113.088 354.942,113.678 355.233,114.272 355.382 C 114.865 355.531,115.812 355.974,116.376 356.365 C 116.939 356.757,118.018 357.287,118.774 357.544 C 119.530 357.800,120.430 358.255,120.774 358.554 C 121.118 358.854,122.045 359.306,122.833 359.558 C 123.621 359.811,124.964 360.374,125.817 360.809 C 126.671 361.244,127.651 361.600,127.996 361.600 C 128.340 361.600,129.019 361.878,129.505 362.219 C 130.327 362.794,131.395 363.216,136.600 365.019 C 137.700 365.400,139.770 366.129,141.200 366.639 C 142.630 367.148,144.430 367.685,145.200 367.831 C 145.970 367.977,147.050 368.324,147.600 368.602 C 148.150 368.880,150.002 369.396,151.716 369.748 C 153.430 370.101,155.173 370.572,155.591 370.795 C 156.008 371.018,157.756 371.393,159.475 371.627 C 161.194 371.862,163.590 372.338,164.800 372.686 C 166.010 373.033,168.980 373.552,171.400 373.839 C 173.820 374.126,176.970 374.537,178.400 374.752 C 181.613 375.237,187.081 375.452,187.426 375.107 C 187.648 374.886,101.003 288.027,95.746 283.200 C 93.849 281.458,91.662 278.582,91.078 277.059 C 90.922 276.651,90.778 247.448,90.759 212.163 L 90.725 148.008 91.592 146.217 C 92.568 144.201,96.338 140.553,98.287 139.738 C 99.320 139.306,104.644 139.200,125.219 139.200 L 150.864 139.200 150.797 126.700 C 150.699 108.639,150.657 109.502,151.700 108.224 C 152.760 106.925,155.126 104.571,156.648 103.300 L 157.727 102.400 200.000 102.400 L 242.273 102.400 243.397 103.300 C 245.737 105.173,249.200 109.015,249.200 109.738 C 249.200 110.194,254.849 116.160,263.500 124.840 L 277.800 139.188 289.200 139.195 C 299.703 139.201,300.710 139.262,302.000 139.973 C 302.770 140.397,303.760 140.916,304.200 141.125 C 304.640 141.334,306.376 143.011,308.057 144.853 C 313.877 151.225,382.787 219.866,383.852 220.351 C 385.325 221.022,385.462 220.753,385.962 216.200 C 386.541 210.936,386.828 209.230,387.172 209.017 C 387.328 208.921,387.377 209.373,387.282 210.021 C 387.179 210.724,387.289 211.200,387.555 211.200 C 387.800 211.200,388.023 210.615,388.051 209.900 C 388.079 209.185,388.196 208.150,388.310 207.600 C 388.424 207.050,388.588 202.935,388.675 198.456 L 388.832 190.313 389.716 190.481 C 390.783 190.684,391.097 187.237,390.044 186.883 C 389.710 186.770,389.599 186.874,389.765 187.144 C 389.941 187.428,389.816 187.504,389.421 187.353 C 388.880 187.145,388.342 163.796,388.779 159.500 C 388.830 158.997,388.562 158.800,387.825 158.800 L 386.800 158.800 386.732 153.900 C 386.694 151.205,386.649 148.460,386.632 147.800 C 386.606 146.822,386.434 146.606,385.700 146.632 C 384.829 146.663,384.800 146.544,384.800 142.939 C 384.800 139.301,384.777 139.209,383.800 138.964 C 382.847 138.725,382.375 135.945,382.770 132.900 C 382.806 132.625,382.626 132.400,382.371 132.400 C 382.091 132.400,381.983 132.001,382.099 131.395 C 382.245 130.632,382.136 130.415,381.645 130.495 C 381.139 130.577,380.973 130.181,380.876 128.647 C 380.808 127.573,380.486 126.429,380.162 126.105 C 379.690 125.633,379.671 125.397,380.065 124.922 C 380.474 124.429,380.426 124.352,379.778 124.464 C 379.110 124.581,378.983 124.331,378.878 122.702 C 378.773 121.070,378.619 120.770,377.778 120.559 C 376.867 120.330,376.502 118.625,376.834 116.145 C 376.853 116.004,376.628 115.737,376.334 115.551 C 375.905 115.279,375.917 115.208,376.400 115.190 C 376.732 115.178,376.508 114.901,375.900 114.571 C 375.108 114.141,374.786 113.642,374.750 112.787 C 374.723 112.134,374.655 111.420,374.600 111.200 C 374.545 110.980,374.478 110.609,374.450 110.376 C 374.423 110.143,374.256 110.042,374.081 110.150 C 373.400 110.571,372.839 109.706,372.743 108.090 C 372.688 107.160,372.499 106.373,372.322 106.340 C 372.145 106.307,371.775 106.262,371.500 106.240 C 371.213 106.217,370.915 105.433,370.800 104.400 C 370.649 103.042,370.384 102.505,369.722 102.215 C 368.748 101.787,368.313 100.619,368.649 99.333 C 368.822 98.674,368.628 98.409,367.763 98.121 C 366.783 97.794,366.654 97.550,366.629 95.976 C 366.604 94.449,366.474 94.182,365.700 94.072 C 364.852 93.952,364.571 93.235,364.770 91.700 C 364.806 91.425,364.628 91.200,364.375 91.200 C 364.122 91.200,364.022 90.919,364.154 90.575 C 364.334 90.107,364.171 89.982,363.502 90.075 C 362.933 90.155,362.594 89.982,362.566 89.600 C 362.542 89.270,362.494 88.728,362.461 88.396 C 362.427 88.064,361.938 87.294,361.374 86.686 C 360.810 86.077,360.323 85.237,360.291 84.817 C 360.260 84.398,360.136 84.064,360.017 84.075 C 358.703 84.194,358.400 83.918,358.400 82.600 C 358.400 81.622,358.219 81.200,357.800 81.200 C 357.470 81.200,357.200 80.945,357.200 80.633 C 357.200 80.322,357.036 80.007,356.837 79.933 C 356.637 79.860,356.412 79.440,356.337 79.000 C 356.261 78.560,355.840 78.103,355.400 77.984 C 354.851 77.836,354.561 77.366,354.475 76.484 C 354.389 75.610,354.134 75.191,353.675 75.172 C 353.117 75.149,353.134 75.091,353.773 74.841 C 354.651 74.497,354.163 74.045,353.100 74.216 C 352.616 74.294,352.398 74.063,352.394 73.465 C 352.385 72.219,351.781 71.445,351.040 71.729 C 350.565 71.912,350.400 71.732,350.400 71.030 C 350.400 70.090,349.457 69.394,348.764 69.822 C 348.564 69.946,348.400 69.497,348.400 68.824 C 348.400 67.785,348.249 67.600,347.400 67.600 C 346.652 67.600,346.400 67.389,346.400 66.764 C 346.400 66.304,345.995 65.574,345.500 65.142 L 344.600 64.355 345.500 64.791 C 346.144 65.104,346.400 65.105,346.400 64.795 C 346.400 64.556,345.857 64.133,345.193 63.854 C 344.530 63.575,344.105 63.228,344.250 63.083 C 344.670 62.663,343.578 61.600,342.726 61.600 C 342.151 61.600,341.982 61.367,342.075 60.700 C 342.168 60.030,341.976 59.768,341.325 59.675 C 340.779 59.598,340.402 59.221,340.325 58.675 C 340.232 58.024,339.970 57.832,339.300 57.925 C 338.576 58.026,338.400 57.857,338.400 57.064 C 338.400 56.332,338.096 55.972,337.218 55.666 C 336.325 55.355,336.075 55.052,336.195 54.427 C 336.321 53.773,336.149 53.600,335.377 53.600 C 334.476 53.600,334.232 53.265,334.351 52.185 C 334.376 51.957,334.035 51.743,333.594 51.710 C 332.625 51.637,331.243 50.419,332.071 50.367 C 332.362 50.349,332.029 50.085,331.331 49.779 C 330.632 49.473,329.930 49.010,329.769 48.750 C 329.585 48.452,329.648 48.383,329.938 48.562 C 330.192 48.719,330.400 48.657,330.400 48.424 C 330.400 48.020,330.168 47.934,328.800 47.834 C 328.422 47.806,328.245 47.467,328.321 46.917 C 328.420 46.207,328.192 45.997,327.093 45.791 C 326.064 45.598,325.750 45.342,325.772 44.714 C 325.789 44.208,325.516 43.845,325.063 43.775 C 324.141 43.631,323.967 43.456,323.832 42.537 C 323.768 42.103,323.370 41.779,322.862 41.750 C 322.388 41.723,321.563 41.678,321.028 41.650 C 320.343 41.615,320.018 41.334,319.928 40.700 C 319.846 40.122,319.478 39.754,318.900 39.672 C 318.249 39.580,318.000 39.276,318.000 38.572 C 318.000 37.863,317.781 37.600,317.191 37.600 C 316.722 37.600,316.196 37.190,315.937 36.621 C 315.691 36.083,314.840 35.372,314.045 35.042 C 313.233 34.704,312.917 34.432,313.324 34.421 C 313.722 34.409,313.943 34.231,313.815 34.025 C 313.688 33.818,313.227 33.718,312.792 33.802 C 312.356 33.885,312.000 33.784,312.000 33.577 C 312.000 33.370,311.865 33.221,311.700 33.247 C 310.665 33.411,310.039 33.088,309.928 32.332 C 309.836 31.707,309.463 31.420,308.600 31.307 C 307.940 31.221,307.220 30.971,307.000 30.752 C 306.734 30.486,306.852 30.449,307.355 30.640 C 307.905 30.850,308.056 30.775,307.914 30.364 C 307.807 30.054,307.341 29.813,306.879 29.830 C 306.418 29.846,306.131 29.711,306.243 29.530 C 306.356 29.348,305.897 29.200,305.224 29.200 C 304.290 29.200,304.000 29.021,304.000 28.443 C 304.000 27.656,302.998 27.031,302.364 27.422 C 302.164 27.546,302.000 27.283,302.000 26.838 C 302.000 25.961,300.784 25.113,299.684 25.224 C 298.440 25.348,297.463 25.204,297.731 24.936 C 298.114 24.553,296.492 23.518,295.044 23.222 C 294.360 23.082,293.797 22.795,293.794 22.584 C 293.779 21.663,293.046 21.200,291.604 21.200 C 290.303 21.200,290.035 21.056,289.928 20.300 C 289.819 19.536,289.497 19.370,287.797 19.200 C 286.127 19.033,285.795 18.867,285.797 18.200 C 285.800 17.533,285.468 17.367,283.800 17.200 C 282.104 17.030,281.781 16.863,281.672 16.100 C 281.560 15.308,281.312 15.200,279.600 15.200 C 277.888 15.200,277.640 15.092,277.528 14.300 C 277.419 13.532,277.121 13.382,275.500 13.278 C 273.679 13.161,273.369 12.888,273.537 11.547 C 273.554 11.408,273.351 11.301,273.084 11.310 C 269.125 11.440,267.652 11.173,267.528 10.300 C 267.417 9.517,267.129 9.384,265.320 9.280 C 263.592 9.180,263.283 9.050,263.490 8.510 C 263.682 8.010,263.573 7.925,263.013 8.140 C 262.383 8.381,262.358 8.333,262.822 7.774 C 263.273 7.231,263.266 7.142,262.778 7.212 C 260.603 7.524,257.600 7.155,257.600 6.576 C 257.600 6.202,257.413 6.068,257.132 6.242 C 256.829 6.429,256.744 6.323,256.891 5.940 C 257.079 5.449,256.499 5.334,253.459 5.258 C 250.708 5.190,249.651 5.009,249.200 4.527 C 248.762 4.061,248.749 3.972,249.152 4.199 C 249.527 4.411,249.645 4.333,249.519 3.956 C 249.383 3.543,248.312 3.367,245.373 3.272 C 240.944 3.128,241.180 3.196,241.094 2.047 C 241.059 1.583,240.843 1.224,240.615 1.249 C 237.510 1.589,229.200 1.116,229.200 0.600 C 229.200 0.072,225.689 0.000,200.000 0.000 C 174.311 0.000,170.800 0.072,170.800 0.600 M177.847 128.324 C 177.735 128.505,180.023 131.029,182.931 133.931 L 188.219 139.209 205.810 139.104 L 223.400 139.000 223.400 133.600 L 223.400 128.200 200.726 128.097 C 188.255 128.040,177.959 128.142,177.847 128.324 M37.767 307.056 C 37.824 307.441,38.079 307.826,38.335 307.912 C 38.986 308.129,38.916 307.394,38.232 306.827 C 37.776 306.448,37.684 306.493,37.767 307.056 M361.680 306.880 C 361.068 307.492,361.059 308.114,361.665 307.912 C 361.921 307.826,362.175 307.451,362.230 307.078 C 362.348 306.271,362.305 306.255,361.680 306.880 M91.968 362.656 C 92.181 362.764,92.263 363.092,92.150 363.385 C 92.038 363.679,92.113 364.023,92.318 364.149 C 92.522 364.276,92.670 363.994,92.645 363.523 C 92.620 363.052,92.371 362.620,92.090 362.563 C 91.809 362.506,91.754 362.548,91.968 362.656 M307.549 362.500 C 307.288 363.011,307.395 364.327,307.682 364.149 C 307.887 364.023,307.962 363.679,307.850 363.385 C 307.737 363.092,307.860 362.764,308.122 362.657 C 308.477 362.513,308.472 362.455,308.100 362.432 C 307.825 362.414,307.577 362.445,307.549 362.500  M -25 0 L -5 0 L -5 20 L -25 20 Z M 405 0 L 425 0 L 425 20 L 405 20 Z" stroke="none" fill="#ebc33c" fill-rule="evenodd" transform="translate(30,460)"></path><path id="path4" d="M160.340 102.751 C 157.694 103.046,155.978 104.345,152.100 108.990 C 151.059 110.237,151.107 109.329,151.176 126.200 C 151.203 132.800,151.075 138.424,150.891 138.697 C 150.631 139.083,144.776 139.218,124.778 139.300 C 110.600 139.358,144.450 139.410,200.000 139.415 C 256.651 139.420,295.731 139.289,289.000 139.117 C 282.400 138.949,270.850 138.710,263.332 138.586 L 249.664 138.361 249.515 124.881 C 249.345 109.605,249.500 110.392,245.935 106.722 C 241.459 102.114,246.669 102.607,201.818 102.550 C 180.248 102.522,161.583 102.613,160.340 102.751 M242.484 104.718 C 243.520 105.442,245.230 107.044,246.284 108.277 L 248.200 110.519 248.200 124.760 L 248.200 139.000 236.400 139.000 L 224.600 139.000 224.502 134.000 C 224.448 131.250,224.310 128.595,224.194 128.100 L 223.985 127.200 200.241 127.200 C 181.100 127.200,176.413 127.302,176.061 127.726 C 175.807 128.033,175.577 130.500,175.512 133.626 L 175.400 139.000 163.827 139.106 C 154.836 139.189,152.183 139.100,151.934 138.706 C 151.757 138.428,151.609 132.332,151.606 125.160 L 151.600 112.119 152.634 110.160 C 154.210 107.171,157.222 104.386,159.800 103.536 C 160.240 103.391,178.600 103.301,200.600 103.336 L 240.600 103.400 242.484 104.718 M223.520 128.080 C 224.256 128.816,224.179 138.154,223.432 138.773 C 222.857 139.250,192.402 139.110,181.500 138.580 L 176.800 138.352 176.800 134.426 C 176.800 132.267,176.691 129.953,176.557 129.283 C 176.346 128.232,176.442 128.043,177.257 127.888 C 179.661 127.432,223.052 127.612,223.520 128.080 M97.144 140.424 L 96.200 141.247 97.400 140.545 C 98.979 139.620,99.003 139.600,98.511 139.600 C 98.279 139.600,97.664 139.971,97.144 140.424 M301.233 139.721 C 301.325 139.788,301.940 140.158,302.600 140.545 L 303.800 141.247 302.856 140.424 C 302.336 139.971,301.721 139.600,301.489 139.600 C 301.257 139.600,301.142 139.654,301.233 139.721 M305.326 142.607 C 306.122 143.380,307.275 144.865,307.887 145.907 L 309.000 147.800 308.912 167.800 C 308.804 192.512,308.804 191.835,308.912 238.400 L 309.000 276.600 308.036 278.200 C 306.743 280.347,305.362 281.813,303.200 283.334 L 301.400 284.600 200.000 284.600 L 98.600 284.600 97.200 283.609 C 96.430 283.065,95.092 281.985,94.226 281.209 L 92.652 279.800 93.773 281.200 C 95.223 283.011,97.233 284.680,98.583 285.193 C 99.297 285.465,133.486 285.600,201.537 285.600 L 303.422 285.600 304.811 284.412 C 307.436 282.167,308.826 280.671,309.538 279.326 C 310.284 277.916,310.193 148.822,309.445 147.087 C 308.811 145.619,304.955 141.200,304.307 141.200 C 304.070 141.200,304.529 141.833,305.326 142.607 M184.400 175.547 C 179.954 176.221,175.940 180.959,175.237 186.364 C 174.371 193.029,175.059 204.489,176.429 206.192 C 178.057 208.216,181.312 211.204,182.699 211.946 C 183.892 212.585,216.108 212.585,217.301 211.946 C 218.688 211.204,221.943 208.216,223.571 206.192 C 224.994 204.422,225.618 192.956,224.660 186.185 C 224.022 181.669,222.618 179.518,218.403 176.600 L 216.670 175.400 201.435 175.337 C 193.056 175.303,185.390 175.397,184.400 175.547 M217.553 176.862 C 219.644 178.108,221.879 180.331,223.120 182.400 L 224.200 184.200 224.200 194.066 C 224.200 203.671,224.176 203.965,223.300 205.150 C 222.805 205.820,222.400 206.518,222.400 206.703 C 222.400 207.122,219.857 209.495,218.000 210.809 L 216.600 211.800 200.000 211.800 L 183.400 211.800 182.000 210.809 C 180.143 209.495,177.600 207.122,177.600 206.703 C 177.600 206.518,177.195 205.820,176.700 205.150 C 175.257 203.199,175.307 185.018,176.763 182.600 C 178.115 180.353,179.900 178.500,182.000 177.162 L 183.800 176.015 199.953 176.008 C 215.786 176.000,216.134 176.017,217.553 176.862 M90.687 187.446 C 90.272 187.861,90.333 200.311,90.751 200.570 C 91.331 200.928,91.602 198.579,91.572 193.450 C 91.544 188.722,91.271 186.863,90.687 187.446 M188.262 188.331 C 187.430 189.251,187.276 198.716,188.080 199.520 C 188.765 200.205,211.235 200.205,211.920 199.520 C 212.781 198.659,212.566 189.075,211.669 188.262 C 210.498 187.203,189.226 187.266,188.262 188.331 M211.600 194.000 L 211.600 199.600 200.000 199.600 L 188.400 199.600 188.400 194.000 L 188.400 188.400 200.000 188.400 L 211.600 188.400 211.600 194.000 M9.700 204.223 C 9.038 204.942,9.069 205.412,9.829 206.171 C 10.703 207.046,11.012 206.959,11.107 205.815 C 11.167 205.091,11.031 204.890,10.597 205.057 C 10.271 205.182,10.120 205.490,10.261 205.742 C 10.430 206.045,10.341 206.036,9.996 205.717 C 9.567 205.321,9.567 205.122,9.994 204.607 C 10.643 203.825,10.382 203.483,9.700 204.223 M389.067 206.267 C 388.483 206.851,388.792 207.978,389.466 207.719 C 389.913 207.548,390.036 207.617,389.842 207.932 C 389.683 208.189,389.743 208.400,389.976 208.400 C 390.513 208.400,390.529 207.727,390.000 207.400 C 389.780 207.264,389.600 206.961,389.600 206.727 C 389.600 206.459,389.822 206.486,390.200 206.800 C 390.546 207.087,390.800 207.126,390.800 206.892 C 390.800 206.668,390.515 206.376,390.167 206.243 C 389.384 205.942,389.391 205.942,389.067 206.267 M13.200 244.390 C 13.200 244.642,13.380 244.736,13.600 244.600 C 14.102 244.290,14.112 245.204,13.615 245.989 C 13.369 246.378,13.405 246.683,13.721 246.883 C 14.542 247.405,15.134 247.230,15.016 246.500 C 14.954 246.115,15.082 245.575,15.300 245.300 C 15.566 244.966,15.560 244.800,15.282 244.800 C 15.054 244.800,14.682 245.295,14.457 245.900 C 14.048 247.000,14.048 247.000,14.124 245.644 C 14.168 244.859,13.989 244.213,13.700 244.110 C 13.425 244.013,13.200 244.139,13.200 244.390 M385.811 244.382 C 385.682 244.591,385.679 245.266,385.805 245.882 L 386.034 247.000 385.473 245.800 L 384.911 244.600 384.951 245.900 C 384.991 247.192,385.362 247.466,386.279 246.883 C 386.595 246.683,386.631 246.378,386.385 245.989 C 385.888 245.204,385.898 244.290,386.400 244.600 C 386.620 244.736,386.800 244.657,386.800 244.424 C 386.800 243.896,386.129 243.868,385.811 244.382 M17.212 259.924 C 17.205 260.440,17.376 260.738,17.600 260.600 C 17.820 260.464,18.000 260.533,18.000 260.753 C 18.000 260.973,17.817 261.266,17.593 261.404 C 17.370 261.542,17.302 261.842,17.443 262.070 C 17.609 262.338,17.822 262.293,18.044 261.943 C 18.297 261.543,18.389 261.532,18.394 261.900 C 18.397 262.175,18.715 262.397,19.100 262.394 C 19.654 262.389,19.685 262.315,19.249 262.039 C 18.946 261.847,18.821 261.489,18.972 261.245 C 19.124 261.000,19.046 260.800,18.800 260.800 C 18.554 260.800,18.481 260.592,18.638 260.338 C 18.809 260.061,18.749 259.985,18.486 260.147 C 18.246 260.295,17.864 260.098,17.637 259.708 C 17.267 259.074,17.223 259.097,17.212 259.924 M382.246 259.825 C 382.111 260.175,381.801 260.324,381.541 260.164 C 381.252 259.985,381.184 260.051,381.362 260.338 C 381.519 260.592,381.446 260.800,381.200 260.800 C 380.954 260.800,380.876 261.000,381.028 261.245 C 381.179 261.489,381.054 261.847,380.751 262.039 C 380.315 262.315,380.346 262.389,380.900 262.394 C 381.285 262.397,381.603 262.175,381.606 261.900 C 381.611 261.532,381.703 261.543,381.956 261.943 C 382.178 262.293,382.391 262.338,382.557 262.070 C 382.698 261.842,382.630 261.542,382.407 261.404 C 382.183 261.266,382.000 260.973,382.000 260.753 C 382.000 260.533,382.180 260.464,382.400 260.600 C 382.620 260.736,382.800 260.477,382.800 260.024 C 382.800 259.043,382.577 258.963,382.246 259.825 M20.499 268.319 C 20.513 269.074,20.673 269.487,20.874 269.286 C 21.075 269.085,21.065 268.523,20.850 267.968 C 20.500 267.062,20.478 267.085,20.499 268.319 M379.060 268.093 C 378.931 268.584,378.973 269.133,379.152 269.312 C 379.331 269.491,379.493 269.089,379.512 268.419 C 379.553 266.977,379.383 266.855,379.060 268.093 M378.140 271.329 C 378.281 271.730,378.211 272.405,377.984 272.829 C 377.707 273.347,377.705 273.600,377.978 273.600 C 378.637 273.600,378.964 271.599,378.392 271.071 C 377.990 270.699,377.936 270.753,378.140 271.329 M21.200 271.951 C 21.200 272.364,21.476 272.931,21.813 273.211 C 22.348 273.655,22.377 273.591,22.038 272.701 C 21.825 272.141,21.760 271.574,21.892 271.441 C 22.025 271.309,21.923 271.200,21.667 271.200 C 21.410 271.200,21.200 271.538,21.200 271.951 M23.200 276.295 C 23.200 276.974,24.371 278.002,25.129 277.988 C 25.683 277.978,25.660 277.899,25.000 277.538 C 24.560 277.297,23.975 276.819,23.700 276.474 C 23.425 276.129,23.200 276.049,23.200 276.295 M376.400 276.321 C 376.400 276.570,375.905 277.043,375.300 277.371 C 374.625 277.738,374.446 277.974,374.838 277.984 C 375.586 278.003,377.050 276.517,376.664 276.131 C 376.519 275.986,376.400 276.071,376.400 276.321 M27.200 286.357 C 27.200 286.924,28.346 287.211,28.649 286.721 C 28.815 286.452,28.741 286.389,28.462 286.562 C 28.208 286.719,28.000 286.657,28.000 286.424 C 28.000 286.191,27.820 286.000,27.600 286.000 C 27.380 286.000,27.200 286.161,27.200 286.357 M371.478 286.256 C 371.337 286.396,371.313 286.659,371.424 286.838 C 371.673 287.242,372.800 286.848,372.800 286.357 C 372.800 285.947,371.859 285.875,371.478 286.256 M370.080 289.384 C 369.833 289.927,369.784 290.467,369.972 290.583 C 370.161 290.699,370.433 290.324,370.577 289.750 C 370.926 288.361,370.642 288.151,370.080 289.384 M368.532 292.300 C 368.508 292.905,368.572 293.085,368.674 292.700 C 368.776 292.315,369.025 292.000,369.229 292.000 C 369.433 292.000,369.600 291.820,369.600 291.600 C 369.600 290.636,368.570 291.311,368.532 292.300 M31.308 294.380 C 31.353 294.965,31.494 295.054,31.879 294.734 C 32.161 294.501,32.293 294.150,32.172 293.955 C 31.779 293.319,31.248 293.581,31.308 294.380 M367.828 293.955 C 367.707 294.150,367.839 294.501,368.121 294.734 C 368.506 295.054,368.647 294.965,368.692 294.380 C 368.752 293.581,368.221 293.319,367.828 293.955 M38.506 305.839 C 38.661 305.994,38.509 306.325,38.169 306.573 C 37.633 306.965,37.662 307.034,38.384 307.089 C 38.842 307.123,39.122 306.998,39.006 306.810 C 38.890 306.622,39.012 306.396,39.277 306.308 C 39.561 306.213,39.444 306.026,38.992 305.852 C 38.570 305.690,38.351 305.684,38.506 305.839 M360.800 306.000 C 360.364 306.282,360.343 306.389,360.724 306.394 C 361.012 306.397,361.143 306.569,361.015 306.776 C 360.887 306.982,361.158 307.123,361.616 307.089 C 362.338 307.034,362.367 306.965,361.831 306.573 C 361.491 306.325,361.330 306.004,361.473 305.860 C 361.855 305.478,361.490 305.554,360.800 306.000 M42.400 312.486 C 41.570 312.848,41.520 312.951,42.105 313.091 C 42.493 313.184,42.704 313.472,42.575 313.730 C 42.446 313.989,42.624 313.851,42.970 313.424 C 43.317 312.996,43.600 312.501,43.600 312.324 C 43.600 311.943,43.667 311.934,42.400 312.486 M356.400 312.361 C 356.400 312.518,356.683 312.996,357.030 313.424 C 357.376 313.851,357.545 313.975,357.406 313.700 C 357.255 313.402,357.414 313.200,357.800 313.200 C 358.156 313.200,358.349 313.042,358.230 312.848 C 357.951 312.396,356.400 311.984,356.400 312.361 M45.762 318.862 C 45.585 319.148,45.652 319.215,45.938 319.038 C 46.215 318.867,46.400 319.013,46.400 319.400 C 46.400 319.756,46.580 319.936,46.800 319.800 C 47.020 319.664,47.200 319.293,47.200 318.976 C 47.200 318.289,46.167 318.206,45.762 318.862 M352.800 318.976 C 352.800 319.293,352.980 319.664,353.200 319.800 C 353.420 319.936,353.600 319.756,353.600 319.400 C 353.600 319.013,353.785 318.867,354.062 319.038 C 354.348 319.215,354.415 319.148,354.238 318.862 C 353.833 318.206,352.800 318.289,352.800 318.976 M48.800 321.600 C 48.800 321.820,49.081 322.000,49.424 322.000 C 49.793 322.000,49.931 322.188,49.762 322.462 C 49.581 322.755,49.653 322.815,49.958 322.626 C 50.326 322.398,50.329 322.197,49.970 321.764 C 49.427 321.109,48.800 321.021,48.800 321.600 M350.030 321.764 C 349.671 322.197,349.674 322.398,350.042 322.626 C 350.347 322.815,350.419 322.755,350.238 322.462 C 350.069 322.188,350.207 322.000,350.576 322.000 C 350.919 322.000,351.200 321.820,351.200 321.600 C 351.200 321.021,350.573 321.109,350.030 321.764 M50.800 323.187 C 50.800 323.401,50.485 323.474,50.100 323.350 C 49.546 323.171,49.517 323.208,49.964 323.525 C 50.609 323.984,51.708 323.698,51.374 323.158 C 51.083 322.687,50.800 322.702,50.800 323.187 M348.676 323.078 C 348.304 323.679,349.341 324.019,350.036 323.525 C 350.489 323.203,350.467 323.167,349.926 323.340 C 349.555 323.458,349.183 323.349,349.099 323.097 C 348.990 322.770,348.869 322.764,348.676 323.078 M53.878 328.141 C 53.717 328.560,53.768 328.743,54.005 328.597 C 54.222 328.463,54.400 328.614,54.400 328.934 C 54.400 329.555,55.364 330.102,55.761 329.706 C 56.255 329.212,55.974 328.835,55.300 329.087 C 54.665 329.325,54.656 329.280,55.200 328.600 C 55.742 327.923,55.734 327.875,55.126 328.103 C 54.755 328.241,54.383 328.149,54.299 327.898 C 54.214 327.641,54.029 327.747,53.878 328.141 M345.600 327.987 C 345.600 328.201,345.285 328.257,344.900 328.113 C 344.265 327.875,344.256 327.920,344.800 328.600 C 345.344 329.280,345.335 329.325,344.700 329.087 C 344.026 328.835,343.745 329.212,344.239 329.706 C 344.636 330.102,345.600 329.555,345.600 328.934 C 345.600 328.614,345.778 328.463,345.995 328.597 C 346.222 328.737,346.289 328.577,346.153 328.221 C 345.885 327.522,345.600 327.402,345.600 327.987 M55.762 330.461 C 55.585 330.748,55.652 330.815,55.938 330.638 C 56.198 330.478,56.400 330.583,56.400 330.880 C 56.400 331.477,57.956 332.577,58.306 332.228 C 58.431 332.102,58.323 332.000,58.067 332.000 C 57.810 332.000,57.600 331.736,57.600 331.414 C 57.600 330.604,56.142 329.847,55.762 330.461 M343.100 330.432 C 342.715 330.656,342.400 331.101,342.400 331.420 C 342.400 331.739,342.190 332.000,341.933 332.000 C 341.677 332.000,341.569 332.102,341.694 332.228 C 342.044 332.577,343.600 331.477,343.600 330.880 C 343.600 330.583,343.802 330.478,344.062 330.638 C 344.348 330.815,344.415 330.748,344.238 330.462 C 343.902 329.918,343.980 329.920,343.100 330.432 M58.002 333.603 C 58.515 334.563,58.988 334.668,58.634 333.743 C 58.435 333.226,58.497 333.183,58.924 333.537 C 59.333 333.876,59.467 333.861,59.467 333.475 C 59.467 333.194,59.041 332.928,58.521 332.885 C 57.694 332.817,57.629 332.907,58.002 333.603 M340.533 333.475 C 340.533 333.861,340.667 333.876,341.076 333.537 C 341.503 333.183,341.565 333.226,341.366 333.743 C 341.012 334.668,341.485 334.563,341.998 333.603 C 342.371 332.907,342.306 332.817,341.479 332.885 C 340.959 332.928,340.533 333.194,340.533 333.475 M60.095 334.958 C 60.003 336.078,60.598 336.704,60.931 335.837 C 61.049 335.529,60.928 334.980,60.662 334.617 C 60.234 334.032,60.169 334.071,60.095 334.958 M339.242 334.722 C 339.016 335.144,339.001 335.678,339.206 336.010 C 339.609 336.661,339.961 335.995,339.900 334.700 C 339.858 333.815,339.725 333.819,339.242 334.722 M61.698 336.896 C 61.946 337.422,62.578 338.054,63.104 338.302 C 63.871 338.664,63.975 338.652,63.633 338.239 C 63.399 337.957,63.340 337.579,63.503 337.399 C 63.667 337.220,63.494 337.182,63.120 337.316 C 62.607 337.500,62.500 337.393,62.684 336.880 C 62.818 336.506,62.780 336.333,62.601 336.497 C 62.421 336.660,62.043 336.601,61.761 336.367 C 61.348 336.025,61.336 336.129,61.698 336.896 M338.196 336.407 C 338.058 336.630,337.747 336.691,337.504 336.541 C 337.224 336.368,337.154 336.503,337.312 336.914 C 337.496 337.395,337.386 337.497,336.880 337.316 C 336.506 337.182,336.333 337.220,336.497 337.399 C 336.660 337.579,336.601 337.957,336.367 338.239 C 336.025 338.652,336.129 338.664,336.896 338.302 C 337.422 338.054,338.048 337.435,338.288 336.926 C 338.727 335.996,338.665 335.647,338.196 336.407 M64.686 339.607 C 64.908 340.455,65.404 340.641,65.788 340.020 C 65.917 339.811,65.675 339.454,65.250 339.227 C 64.590 338.874,64.509 338.929,64.686 339.607 M334.692 339.237 C 334.302 339.464,334.088 339.818,334.215 340.025 C 334.597 340.643,335.093 340.452,335.316 339.600 C 335.431 339.160,335.497 338.805,335.463 338.812 C 335.428 338.819,335.081 339.010,334.692 339.237 M66.659 341.409 C 66.869 341.958,66.800 342.053,66.368 341.807 C 65.908 341.544,65.895 341.585,66.300 342.021 C 66.647 342.395,66.928 342.432,67.217 342.143 C 67.506 341.854,67.442 341.567,67.008 341.206 C 66.472 340.762,66.422 340.791,66.659 341.409 M332.830 341.364 C 332.209 342.112,333.072 342.705,333.735 341.986 C 334.096 341.595,334.073 341.555,333.632 341.807 C 333.210 342.048,333.130 341.960,333.319 341.466 C 333.632 340.651,333.452 340.614,332.830 341.364 M75.396 348.807 C 75.258 349.030,74.977 349.109,74.772 348.983 C 74.568 348.856,74.400 348.924,74.400 349.134 C 74.400 349.343,74.670 349.618,75.000 349.745 C 75.330 349.871,75.600 349.790,75.600 349.564 C 75.600 349.338,75.778 349.263,75.995 349.397 C 76.222 349.537,76.289 349.377,76.153 349.021 C 75.873 348.293,75.737 348.255,75.396 348.807 M323.851 349.011 C 323.712 349.375,323.776 349.538,324.005 349.397 C 324.222 349.263,324.400 349.338,324.400 349.564 C 324.400 349.790,324.670 349.871,325.000 349.745 C 325.330 349.618,325.600 349.324,325.600 349.091 C 325.600 348.857,325.482 348.785,325.337 348.930 C 325.192 349.075,324.853 349.010,324.584 348.786 C 324.237 348.498,324.023 348.564,323.851 349.011 M76.400 351.235 C 76.400 351.436,76.591 351.600,76.824 351.600 C 77.057 351.600,77.112 351.825,76.947 352.100 C 76.743 352.440,76.863 352.424,77.323 352.051 C 77.801 351.664,78.000 351.641,78.000 351.975 C 78.000 352.235,78.203 352.322,78.451 352.168 C 78.752 351.982,78.652 351.746,78.151 351.460 C 77.145 350.885,76.400 350.790,76.400 351.235 M321.829 351.428 C 321.397 351.744,321.306 352.018,321.576 352.185 C 321.809 352.329,322.000 352.235,322.000 351.975 C 322.000 351.641,322.199 351.664,322.677 352.051 C 323.137 352.424,323.257 352.440,323.053 352.100 C 322.888 351.825,322.943 351.600,323.176 351.600 C 323.409 351.600,323.600 351.450,323.600 351.267 C 323.600 350.772,322.602 350.863,321.829 351.428 M80.133 353.838 C 80.133 354.147,80.373 354.400,80.667 354.400 C 80.960 354.400,81.200 354.239,81.200 354.043 C 81.200 353.846,80.960 353.593,80.667 353.481 C 80.373 353.368,80.133 353.529,80.133 353.838 M319.300 353.465 C 318.635 353.733,318.659 354.400,319.333 354.400 C 319.627 354.400,319.867 354.130,319.867 353.800 C 319.867 353.470,319.852 353.214,319.833 353.232 C 319.815 353.249,319.575 353.354,319.300 353.465 M81.960 354.600 C 82.634 355.905,83.188 356.628,83.185 356.200 C 83.183 355.980,82.814 355.350,82.364 354.800 C 81.821 354.136,81.685 354.069,81.960 354.600 M317.414 355.035 C 317.041 355.604,316.805 356.138,316.889 356.222 C 316.973 356.307,317.358 355.841,317.744 355.188 C 318.606 353.728,318.348 353.609,317.414 355.035 M84.221 356.500 C 83.942 357.408,84.126 358.267,84.600 358.267 C 84.857 358.267,85.067 358.035,85.067 357.751 C 85.067 357.467,84.897 357.340,84.690 357.468 C 84.471 357.603,84.427 357.345,84.584 356.850 C 84.732 356.383,84.746 356.000,84.614 356.000 C 84.483 356.000,84.306 356.225,84.221 356.500 M86.162 359.262 C 85.985 359.548,86.052 359.615,86.338 359.438 C 86.619 359.265,86.800 359.423,86.800 359.843 C 86.800 360.635,87.313 360.272,87.443 359.388 C 87.545 358.693,86.573 358.597,86.162 359.262 M312.557 359.388 C 312.687 360.272,313.200 360.635,313.200 359.843 C 313.200 359.423,313.381 359.265,313.662 359.438 C 313.948 359.615,314.015 359.548,313.838 359.262 C 313.427 358.597,312.455 358.693,312.557 359.388 M92.151 362.879 C 91.985 363.148,92.059 363.211,92.338 363.038 C 92.612 362.869,92.800 363.007,92.800 363.376 C 92.800 363.719,92.980 364.000,93.200 364.000 C 93.822 364.000,93.670 362.913,93.013 362.660 C 92.690 362.536,92.302 362.635,92.151 362.879 M306.900 362.665 C 306.306 362.904,306.224 364.000,306.800 364.000 C 307.020 364.000,307.200 363.719,307.200 363.376 C 307.200 363.007,307.388 362.869,307.662 363.038 C 307.948 363.215,308.015 363.148,307.838 362.862 C 307.681 362.608,307.518 362.414,307.476 362.432 C 307.434 362.449,307.175 362.554,306.900 362.665 M96.400 365.400 C 96.674 365.730,97.078 366.000,97.298 366.000 C 97.521 366.000,97.478 365.735,97.200 365.400 C 96.926 365.070,96.522 364.800,96.302 364.800 C 96.079 364.800,96.122 365.065,96.400 365.400 M302.800 365.400 C 302.522 365.735,302.479 366.000,302.702 366.000 C 302.922 366.000,303.326 365.730,303.600 365.400 C 303.878 365.065,303.921 364.800,303.698 364.800 C 303.478 364.800,303.074 365.070,302.800 365.400 M98.683 367.188 C 99.054 367.621,99.438 367.896,99.536 367.798 C 99.774 367.559,98.795 366.400,98.355 366.400 C 98.164 366.400,98.311 366.755,98.683 367.188 M300.792 367.010 C 300.514 367.345,300.366 367.700,300.464 367.798 C 300.562 367.896,300.946 367.621,301.317 367.188 C 301.689 366.755,301.836 366.400,301.645 366.400 C 301.454 366.400,301.070 366.674,300.792 367.010 M106.111 371.233 C 106.140 371.802,106.394 372.267,106.675 372.267 C 106.985 372.267,107.053 372.096,106.847 371.833 C 106.660 371.595,106.407 371.130,106.283 370.800 C 106.160 370.470,106.083 370.665,106.111 371.233 M293.369 371.336 C 293.055 372.014,293.060 372.267,293.387 372.267 C 293.634 372.267,293.871 371.847,293.914 371.333 C 294.010 370.165,293.911 370.166,293.369 371.336 M285.189 375.128 C 284.402 376.101,284.327 376.667,284.984 376.667 C 285.281 376.667,285.432 376.427,285.319 376.133 C 285.207 375.840,285.284 375.600,285.491 375.600 C 285.697 375.600,285.867 375.330,285.867 375.000 C 285.867 374.258,285.898 374.252,285.189 375.128 M126.251 380.988 C 126.387 381.343,126.670 381.577,126.879 381.507 C 127.479 381.307,127.307 380.613,126.623 380.471 C 126.195 380.382,126.080 380.542,126.251 380.988 M272.678 380.656 C 272.371 380.962,272.711 381.600,273.181 381.600 C 273.364 381.600,273.618 381.330,273.745 381.000 C 273.973 380.405,273.183 380.150,272.678 380.656 M127.200 382.000 L 126.200 382.320 127.276 382.360 C 127.868 382.382,128.464 382.220,128.600 382.000 C 128.881 381.545,128.620 381.545,127.200 382.000 M271.087 382.117 C 270.945 382.489,271.267 382.585,272.266 382.468 C 273.822 382.287,273.831 382.216,272.342 381.859 C 271.653 381.694,271.215 381.784,271.087 382.117 M136.471 384.813 C 136.579 385.136,136.922 385.408,137.233 385.418 C 137.545 385.428,137.755 385.653,137.700 385.918 C 137.645 386.183,137.825 386.413,138.100 386.430 C 138.375 386.446,139.005 386.535,139.500 386.627 C 139.995 386.719,140.400 386.605,140.400 386.374 C 140.400 386.142,140.232 386.056,140.027 386.183 C 139.822 386.310,139.372 386.010,139.027 385.518 C 138.682 385.025,138.400 384.846,138.400 385.120 C 138.400 385.468,138.080 385.409,137.338 384.922 C 136.489 384.366,136.315 384.344,136.471 384.813 M262.489 385.023 C 261.825 385.488,261.600 385.516,261.600 385.134 C 261.600 384.852,261.318 385.025,260.973 385.518 C 260.628 386.010,260.178 386.310,259.973 386.183 C 259.768 386.056,259.600 386.142,259.600 386.374 C 259.600 386.605,260.005 386.719,260.500 386.627 C 260.995 386.535,261.625 386.446,261.900 386.430 C 262.175 386.413,262.355 386.183,262.300 385.918 C 262.245 385.653,262.455 385.428,262.767 385.418 C 263.078 385.408,263.408 385.175,263.500 384.900 C 263.716 384.251,263.564 384.269,262.489 385.023 M143.417 386.772 C 143.291 386.977,143.362 387.253,143.576 387.385 C 143.790 387.517,143.881 387.845,143.779 388.113 C 143.663 388.416,144.023 388.630,144.730 388.679 C 145.491 388.731,145.867 388.566,145.867 388.179 C 145.867 387.860,145.706 387.600,145.510 387.600 C 145.313 387.600,145.281 387.392,145.438 387.138 C 145.609 386.863,145.549 386.785,145.289 386.945 C 145.051 387.092,144.742 387.030,144.604 386.807 C 144.290 386.299,143.720 386.282,143.417 386.772 M255.396 386.807 C 255.258 387.030,254.949 387.092,254.711 386.945 C 254.451 386.785,254.391 386.863,254.562 387.138 C 254.719 387.392,254.687 387.600,254.490 387.600 C 254.294 387.600,254.133 387.860,254.133 388.179 C 254.133 388.566,254.509 388.731,255.270 388.679 C 255.977 388.630,256.337 388.416,256.221 388.113 C 256.119 387.845,256.210 387.517,256.424 387.385 C 256.858 387.117,256.549 386.400,256.000 386.400 C 255.806 386.400,255.534 386.583,255.396 386.807 M159.243 391.174 C 158.671 391.527,158.959 392.400,159.647 392.400 C 159.867 392.400,159.922 392.197,159.768 391.948 C 159.597 391.671,159.704 391.574,160.044 391.698 C 160.350 391.809,160.563 392.079,160.517 392.298 C 160.470 392.524,161.416 392.695,162.717 392.695 C 164.877 392.695,164.925 392.674,163.600 392.313 C 162.830 392.104,161.840 391.632,161.400 391.266 C 160.606 390.605,160.606 390.607,161.362 391.500 C 162.298 392.606,161.761 392.691,160.620 391.618 C 160.083 391.114,159.594 390.956,159.243 391.174 M238.386 391.371 C 238.064 391.685,237.170 392.111,236.400 392.318 C 235.080 392.673,235.130 392.695,237.283 392.695 C 238.584 392.695,239.530 392.524,239.483 392.298 C 239.437 392.079,239.650 391.809,239.956 391.698 C 240.296 391.574,240.403 391.671,240.232 391.948 C 240.078 392.197,240.133 392.400,240.353 392.400 C 241.041 392.400,241.329 391.527,240.757 391.174 C 240.406 390.956,239.917 391.114,239.380 391.618 C 238.289 392.644,237.668 392.629,238.600 391.600 C 239.428 390.685,239.267 390.512,238.386 391.371 M170.800 393.279 C 170.800 393.749,170.935 393.970,171.100 393.771 C 171.265 393.572,171.550 393.297,171.734 393.160 C 171.917 393.023,171.782 392.802,171.434 392.668 C 170.977 392.493,170.800 392.664,170.800 393.279 M228.544 392.706 C 228.214 392.919,228.242 393.142,228.644 393.516 C 229.106 393.944,229.200 393.893,229.200 393.216 C 229.200 392.305,229.184 392.293,228.544 392.706 M176.400 394.406 C 175.978 394.682,176.215 394.723,177.200 394.542 C 178.925 394.225,179.251 393.998,177.967 394.006 C 177.435 394.009,176.730 394.189,176.400 394.406 M221.233 394.143 C 221.325 394.221,222.030 394.401,222.800 394.542 C 223.785 394.723,224.022 394.682,223.600 394.406 C 223.058 394.050,220.837 393.803,221.233 394.143  M -25 0 L -5 0 L -5 20 L -25 20 Z M 405 0 L 425 0 L 425 20 L 405 20 Z" stroke="none" fill="#cc9c34" fill-rule="evenodd" transform="translate(490,460)"></path></g></svg>