<?xml version="1.0" encoding="UTF-8"?>
<svg version="1.1" xmlns="http://www.w3.org/2000/svg" width="198" height="198">
<path d="M0 0 C1.98454618 1.63536653 3.94541756 3.30012976 5.875 5 C7.10089844 6.07701172 7.10089844 6.07701172 8.3515625 7.17578125 C27.45213387 25.12769283 35.96711322 49.61253829 36.85180664 75.2644043 C37.3572484 102.61945636 30.80554733 127.50043433 11.875 148 C10.94107422 149.05380859 10.94107422 149.05380859 9.98828125 150.12890625 C-5.23983062 166.44246006 -27.69553528 176.385594 -49.82421875 177.375 C-76.72600031 178.07499905 -99.59463296 172.08627572 -120.125 154 C-120.94226563 153.28199219 -121.75953125 152.56398437 -122.6015625 151.82421875 C-141.70213387 133.87230717 -150.21711322 109.38746171 -151.10180664 83.7355957 C-151.6072484 56.38054364 -145.05554733 31.49956567 -126.125 11 C-125.50238281 10.29746094 -124.87976563 9.59492188 -124.23828125 8.87109375 C-92.70519219 -24.90963688 -36.12799015 -27.81444697 0 0 Z " fill="#ECBF3C" transform="translate(156.125,18)"/>
<path d="M0 0 C0.83096191 -0.00945648 1.66192383 -0.01891296 2.51806641 -0.02865601 C3.41187012 -0.02258331 4.30567383 -0.01651062 5.2265625 -0.01025391 C6.14743652 -0.01312408 7.06831055 -0.01599426 8.01708984 -0.01895142 C9.96387344 -0.02099272 11.91067752 -0.01545824 13.85742188 -0.00292969 C16.84030949 0.01312303 19.82184211 -0.00277613 22.8046875 -0.02197266 C24.6953155 -0.01999024 26.58594265 -0.01614659 28.4765625 -0.01025391 C29.37036621 -0.0163266 30.26416992 -0.02239929 31.18505859 -0.02865601 C32.43150146 -0.01447128 32.43150146 -0.01447128 33.703125 0 C34.79874756 0.00358017 34.79874756 0.00358017 35.91650391 0.00723267 C38.44308306 0.50463501 39.3297553 1.33442997 40.8515625 3.38818359 C41.0687726 6.03814685 41.13507804 8.43894917 41.0390625 11.07568359 C41.01875977 12.12852539 41.01875977 12.12852539 40.99804688 13.20263672 C40.96276432 14.93148188 40.90895833 16.65993125 40.8515625 18.38818359 C41.65376221 18.37247314 42.45596191 18.3567627 43.2824707 18.34057617 C46.90959654 18.27829777 50.53660999 18.23921496 54.1640625 18.20068359 C55.42669922 18.17554687 56.68933594 18.15041016 57.99023438 18.12451172 C59.19873047 18.11484375 60.40722656 18.10517578 61.65234375 18.09521484 C62.76778564 18.07950439 63.88322754 18.06379395 65.0324707 18.04760742 C67.8515625 18.38818359 67.8515625 18.38818359 69.50349426 19.51249695 C71.47361308 22.25369763 71.23282738 24.38653253 71.23974609 27.73974609 C71.24920258 29.05120605 71.25865906 30.36266602 71.2684021 31.71386719 C71.26303242 33.14697572 71.25687948 34.58008151 71.25 36.01318359 C71.25202081 37.48144678 71.25493231 38.949709 71.25869751 40.41796875 C71.26312056 43.49472614 71.2566907 46.57122221 71.24267578 49.64794922 C71.22558357 53.59258831 71.2354249 57.53661507 71.25339317 61.48123169 C71.26423172 64.51298642 71.26078442 67.54459588 71.2530098 70.57635498 C71.25100797 72.03082349 71.25346648 73.48530517 71.26044846 74.9397583 C71.26806317 76.97204335 71.25439992 79.00437461 71.23974609 81.03662109 C71.23735931 82.19339355 71.23497253 83.35016602 71.23251343 84.54199219 C70.79893754 87.78135949 70.37342993 88.43690714 67.8515625 90.38818359 C65.89782715 90.76570702 65.89782715 90.76570702 63.63867188 90.76913452 C62.35162354 90.78182373 62.35162354 90.78182373 61.03857422 90.79476929 C60.10029785 90.78869659 59.16202148 90.7826239 58.1953125 90.77636719 C56.7095874 90.78425262 56.7095874 90.78425262 55.19384766 90.79229736 C51.91292651 90.80552381 48.63248876 90.79674974 45.3515625 90.78662109 C43.07617092 90.78864106 40.80077998 90.79155185 38.52539062 90.7953186 C33.75384362 90.79974555 28.98246496 90.79329885 24.2109375 90.77929688 C18.08714397 90.76220495 11.96374487 90.77204413 5.83996582 90.79001427 C1.14059463 90.800842 -3.55868266 90.79741038 -8.25805664 90.78963089 C-10.51635789 90.78762609 -12.7746676 90.79009791 -15.03295898 90.79706955 C-18.18626568 90.80466727 -21.33892887 90.793103 -24.4921875 90.77636719 C-25.43046387 90.78243988 -26.36874023 90.78851257 -27.33544922 90.79476929 C-28.62249756 90.78208008 -28.62249756 90.78208008 -29.93554688 90.76913452 C-30.68106812 90.76800344 -31.42658936 90.76687237 -32.19470215 90.76570702 C-34.71706941 90.27830594 -35.60614546 89.41203364 -37.1484375 87.38818359 C-37.52938843 84.54199219 -37.52938843 84.54199219 -37.53662109 81.03662109 C-37.54607758 79.72516113 -37.55553406 78.41370117 -37.5652771 77.0625 C-37.55990742 75.62939146 -37.55375448 74.19628568 -37.546875 72.76318359 C-37.54889581 71.2949204 -37.55180731 69.82665819 -37.55557251 68.35839844 C-37.55999556 65.28164104 -37.5535657 62.20514498 -37.53955078 59.12841797 C-37.52245857 55.18377888 -37.5322999 51.23975212 -37.55026817 47.2951355 C-37.56110672 44.26338077 -37.55765942 41.2317713 -37.5498848 38.20001221 C-37.54788297 36.7455437 -37.55034148 35.29106202 -37.55732346 33.83660889 C-37.56493817 31.80432384 -37.55127492 29.77199258 -37.53662109 27.73974609 C-37.53423431 26.58297363 -37.53184753 25.42620117 -37.52938843 24.234375 C-37.1484375 21.38818359 -37.1484375 21.38818359 -35.80036926 19.51249695 C-33.23375882 17.76564852 -31.01519034 18.05203215 -27.94921875 18.09521484 C-26.13647461 18.1097168 -26.13647461 18.1097168 -24.28710938 18.12451172 C-22.3931543 18.1622168 -22.3931543 18.1622168 -20.4609375 18.20068359 C-18.54958008 18.22098633 -18.54958008 18.22098633 -16.59960938 18.24169922 C-13.44879693 18.27710161 -10.29882705 18.3264857 -7.1484375 18.38818359 C-7.20064453 16.81617188 -7.20064453 16.81617188 -7.25390625 15.21240234 C-7.28204687 13.83351213 -7.30934674 12.45460457 -7.3359375 11.07568359 C-7.36107422 10.38539062 -7.38621094 9.69509766 -7.41210938 8.98388672 C-7.48659265 3.84454059 -7.48659265 3.84454059 -5.8894043 1.6890564 C-3.75409645 0.09352688 -2.64566744 0.00864526 0 0 Z " fill="#F2643F" transform="translate(82.1484375,50.61181640625)"/>
<path d="M0 0 C4.98592875 4.17777765 9.66704284 8.53127277 14.24609375 13.1484375 C15.23005882 14.13452499 15.23005882 14.13452499 16.23390198 15.14053345 C18.30415268 17.21632862 20.37087651 19.29559427 22.4375 21.375 C23.85067862 22.7932008 25.26408794 24.21117176 26.67773438 25.62890625 C30.12116065 29.08328777 33.56143099 32.5407837 37 36 C37.66 34.68 38.32 33.36 39 32 C40.60923951 52.69660818 31.41331714 73.48825569 18.45703125 89.2109375 C17.64621094 90.13132812 16.83539063 91.05171875 16 92 C15.28199219 92.81726563 14.56398437 93.63453125 13.82421875 94.4765625 C-1.74502542 111.0420106 -24.07640229 121.36350059 -46.69921875 122.375 C-73.60100031 123.07499905 -96.46963296 117.08627572 -117 99 C-117.81726563 98.28199219 -118.63453125 97.56398438 -119.4765625 96.82421875 C-137.94422323 79.46715617 -146.78315208 55.55433753 -147.921875 30.68359375 C-147.94765625 29.79800781 -147.9734375 28.91242188 -148 28 C-147.34 27.67 -146.68 27.34 -146 27 C-145.92523438 27.969375 -145.85046875 28.93875 -145.7734375 29.9375 C-143.98252155 49.38768022 -136.06989564 67.38266681 -123 82 C-121.89205078 83.24910156 -121.89205078 83.24910156 -120.76171875 84.5234375 C-106.22133736 99.99192834 -86.7098347 108.65903468 -66 112 C-64.33350434 112.02387487 -62.66641383 112.02902972 -61 112 C-61.53870728 111.46351334 -62.07741455 110.92702667 -62.63244629 110.37428284 C-67.69728585 105.32944168 -72.75974359 100.28222824 -77.81951141 95.23230076 C-80.42116116 92.63588001 -83.02373723 90.04040187 -85.62841797 87.44702148 C-88.13984522 84.94642254 -90.64885495 82.44342177 -93.15617371 79.93870354 C-94.11542721 78.98130439 -95.07556348 78.02478891 -96.03657532 77.06915474 C-97.37759636 75.73534331 -98.71525461 74.39815344 -100.05273438 73.06079102 C-100.81662476 72.29912125 -101.58051514 71.53745148 -102.36755371 70.75270081 C-104 69 -104 69 -104 68 C-102.73910553 67.99191315 -101.47821106 67.98382629 -100.17910767 67.97549438 C-88.31842585 67.89813767 -76.45786024 67.81042524 -64.59733009 67.71247292 C-58.49915483 67.66244562 -52.40099744 67.61611628 -46.30273438 67.578125 C-40.42177778 67.54135333 -34.54096842 67.49501583 -28.66013718 67.44193649 C-26.4122004 67.42334925 -24.16423201 67.40825746 -21.91624832 67.39665604 C-18.77685594 67.37986749 -15.637804 67.35085073 -12.49853516 67.31884766 C-11.56130112 67.31668747 -10.62406708 67.31452728 -9.65843201 67.31230164 C-8.80585312 67.30113815 -7.95327423 67.28997467 -7.07485962 67.2784729 C-6.33189447 67.27294214 -5.58892933 67.26741138 -4.82345009 67.26171303 C-2.75047492 67.15012513 -2.75047492 67.15012513 -1 65 C-0.66735445 62.1676097 -0.66735445 62.1676097 -0.68115234 58.80615234 C-0.66128265 57.50495453 -0.64141296 56.20375671 -0.62094116 54.86312866 C-0.6090638 53.4374 -0.597401 52.01166955 -0.5859375 50.5859375 C-0.56723326 49.13146862 -0.54766041 47.67701067 -0.5272522 46.2225647 C-0.47584606 42.39215531 -0.43626601 38.56171072 -0.39910889 34.73114014 C-0.35912218 30.82327503 -0.3080056 26.91555748 -0.2578125 23.0078125 C-0.1609529 15.33864277 -0.07658053 7.66940187 0 0 Z " fill="#CAA334" transform="translate(153,73)"/>
<path d="M0 0 C0.83096191 -0.00945648 1.66192383 -0.01891296 2.51806641 -0.02865601 C3.41187012 -0.02258331 4.30567383 -0.01651062 5.2265625 -0.01025391 C6.14743652 -0.01312408 7.06831055 -0.01599426 8.01708984 -0.01895142 C9.96387344 -0.02099272 11.91067752 -0.01545824 13.85742188 -0.00292969 C16.84030949 0.01312303 19.82184211 -0.00277613 22.8046875 -0.02197266 C24.6953155 -0.01999024 26.58594265 -0.01614659 28.4765625 -0.01025391 C29.37036621 -0.0163266 30.26416992 -0.02239929 31.18505859 -0.02865601 C32.43150146 -0.01447128 32.43150146 -0.01447128 33.703125 0 C34.79874756 0.00358017 34.79874756 0.00358017 35.91650391 0.00723267 C38.44308306 0.50463501 39.3297553 1.33442997 40.8515625 3.38818359 C41.0687726 6.03814685 41.13507804 8.43894917 41.0390625 11.07568359 C41.01875977 12.12852539 41.01875977 12.12852539 40.99804688 13.20263672 C40.96276432 14.93148188 40.90895833 16.65993125 40.8515625 18.38818359 C41.65376221 18.37247314 42.45596191 18.3567627 43.2824707 18.34057617 C46.90959654 18.27829777 50.53660999 18.23921496 54.1640625 18.20068359 C55.42669922 18.17554687 56.68933594 18.15041016 57.99023438 18.12451172 C59.19873047 18.11484375 60.40722656 18.10517578 61.65234375 18.09521484 C62.76778564 18.07950439 63.88322754 18.06379395 65.0324707 18.04760742 C67.8515625 18.38818359 67.8515625 18.38818359 69.50944519 19.60404968 C71.27728039 21.95410859 71.19761173 23.35547614 71.14453125 26.27490234 C71.13486328 27.21269531 71.12519531 28.15048828 71.11523438 29.11669922 C71.09009766 30.09316406 71.06496094 31.06962891 71.0390625 32.07568359 C71.01875977 33.5577832 71.01875977 33.5577832 70.99804688 35.06982422 C70.96268453 37.5098259 70.91333283 39.94873078 70.8515625 42.38818359 C64.92512651 42.51167476 58.99943721 42.60247131 53.07202148 42.6628418 C51.05528725 42.6880043 49.03864437 42.7221379 47.0222168 42.76538086 C44.1252593 42.82595685 41.22950589 42.85437528 38.33203125 42.87646484 C37.42881638 42.90227127 36.5256015 42.9280777 35.59501648 42.95466614 C33.24072018 42.95572379 31.14341414 42.92916506 28.8515625 42.38818359 C27.0168457 39.89916992 27.0168457 39.89916992 25.8515625 37.38818359 C23.9031917 36.6292403 23.9031917 36.6292403 21.7265625 36.72412109 C20.93765625 36.71767578 20.14875 36.71123047 19.3359375 36.70458984 C18.51609375 36.72392578 17.69625 36.74326172 16.8515625 36.76318359 C16.03171875 36.74384766 15.211875 36.72451172 14.3671875 36.70458984 C13.57828125 36.71103516 12.789375 36.71748047 11.9765625 36.72412109 C11.25726563 36.72976074 10.53796875 36.73540039 9.796875 36.74121094 C8.83394531 37.0614624 8.83394531 37.0614624 7.8515625 37.38818359 C7.46701904 38.21680908 7.08247559 39.04543457 6.6862793 39.89916992 C4.8515625 42.38818359 4.8515625 42.38818359 2.96914673 42.83251953 C0.42323711 42.96818854 -2.08031693 42.94928249 -4.62890625 42.87646484 C-6.02088982 42.86585274 -6.02088982 42.86585274 -7.44099426 42.85502625 C-10.4067933 42.82702302 -13.37070858 42.76427392 -16.3359375 42.70068359 C-18.34567587 42.67560837 -20.35544382 42.65279385 -22.36523438 42.63232422 C-27.29369526 42.57717686 -32.22074696 42.49086356 -37.1484375 42.38818359 C-37.23547573 38.95084297 -37.28884022 35.51378523 -37.3359375 32.07568359 C-37.36107422 31.09921875 -37.38621094 30.12275391 -37.41210938 29.11669922 C-37.42177734 28.17890625 -37.43144531 27.24111328 -37.44140625 26.27490234 C-37.4571167 25.41082764 -37.47282715 24.54675293 -37.48901367 23.65649414 C-37.1484375 21.38818359 -37.1484375 21.38818359 -35.80632019 19.60404968 C-33.25319493 17.73162623 -31.0722351 18.0512287 -27.94921875 18.09521484 C-26.13647461 18.1097168 -26.13647461 18.1097168 -24.28710938 18.12451172 C-22.3931543 18.1622168 -22.3931543 18.1622168 -20.4609375 18.20068359 C-18.54958008 18.22098633 -18.54958008 18.22098633 -16.59960938 18.24169922 C-13.44879693 18.27710161 -10.29882705 18.3264857 -7.1484375 18.38818359 C-7.20064453 16.81617188 -7.20064453 16.81617188 -7.25390625 15.21240234 C-7.28204687 13.83351213 -7.30934674 12.45460457 -7.3359375 11.07568359 C-7.36107422 10.38539062 -7.38621094 9.69509766 -7.41210938 8.98388672 C-7.48659265 3.84454059 -7.48659265 3.84454059 -5.8894043 1.6890564 C-3.75409645 0.09352688 -2.64566744 0.00864526 0 0 Z " fill="#F2643F" transform="translate(82.1484375,50.61181640625)"/>
<path d="M0 0 C0.83096191 -0.00945648 1.66192383 -0.01891296 2.51806641 -0.02865601 C3.41187012 -0.02258331 4.30567383 -0.01651062 5.2265625 -0.01025391 C6.14743652 -0.01312408 7.06831055 -0.01599426 8.01708984 -0.01895142 C9.96387344 -0.02099272 11.91067752 -0.01545824 13.85742188 -0.00292969 C16.84030949 0.01312303 19.82184211 -0.00277613 22.8046875 -0.02197266 C24.6953155 -0.01999024 26.58594265 -0.01614659 28.4765625 -0.01025391 C29.37036621 -0.0163266 30.26416992 -0.02239929 31.18505859 -0.02865601 C32.43150146 -0.01447128 32.43150146 -0.01447128 33.703125 0 C34.79874756 0.00358017 34.79874756 0.00358017 35.91650391 0.00723267 C38.44308306 0.50463501 39.3297553 1.33442997 40.8515625 3.38818359 C41.0687726 6.03814685 41.13507804 8.43894917 41.0390625 11.07568359 C41.01875977 12.12852539 41.01875977 12.12852539 40.99804688 13.20263672 C40.96276432 14.93148188 40.90895833 16.65993125 40.8515625 18.38818359 C36.8915625 18.38818359 32.9315625 18.38818359 28.8515625 18.38818359 C28.8515625 16.40818359 28.8515625 14.42818359 28.8515625 12.38818359 C20.9315625 12.38818359 13.0115625 12.38818359 4.8515625 12.38818359 C4.8515625 14.36818359 4.8515625 16.34818359 4.8515625 18.38818359 C0.8915625 18.38818359 -3.0684375 18.38818359 -7.1484375 18.38818359 C-7.2294098 15.95001775 -7.28890722 13.51453975 -7.3359375 11.07568359 C-7.36107422 10.38539062 -7.38621094 9.69509766 -7.41210938 8.98388672 C-7.48659265 3.84454059 -7.48659265 3.84454059 -5.8894043 1.6890564 C-3.75409645 0.09352688 -2.64566744 0.00864526 0 0 Z " fill="#344E5E" transform="translate(82.1484375,50.61181640625)"/>
<path d="M0 0 C0.78890625 -0.00386719 1.5778125 -0.00773437 2.390625 -0.01171875 C3.21046875 -0.00011719 4.0303125 0.01148437 4.875 0.0234375 C6.10476562 0.00603516 6.10476562 0.00603516 7.359375 -0.01171875 C8.54273437 -0.00591797 8.54273437 -0.00591797 9.75 0 C10.46929687 0.00338379 11.18859375 0.00676758 11.9296875 0.01025391 C14.4394298 0.51106845 15.33163721 1.38760528 16.875 3.3984375 C17.2734375 6.2109375 17.2734375 6.2109375 17.25 9.3984375 C17.25773437 10.4503125 17.26546875 11.5021875 17.2734375 12.5859375 C16.81931245 15.79152607 16.36941285 16.45646436 13.875 18.3984375 C11.9296875 18.78662109 11.9296875 18.78662109 9.75 18.796875 C8.96109375 18.80074219 8.1721875 18.80460937 7.359375 18.80859375 C6.53953125 18.79699219 5.7196875 18.78539063 4.875 18.7734375 C3.64523438 18.79083984 3.64523438 18.79083984 2.390625 18.80859375 C1.20726563 18.80279297 1.20726563 18.80279297 0 18.796875 C-0.71929687 18.79349121 -1.43859375 18.79010742 -2.1796875 18.78662109 C-4.6894298 18.28580655 -5.58163721 17.40926972 -7.125 15.3984375 C-7.5234375 12.5859375 -7.5234375 12.5859375 -7.5 9.3984375 C-7.50773437 8.3465625 -7.51546875 7.2946875 -7.5234375 6.2109375 C-6.85710232 1.50739503 -4.61717345 0.02172057 0 0 Z " fill="#364E5E" transform="translate(94.125,86.6015625)"/>
<path d="M0 0 C13.86 0 27.72 0 42 0 C42 1.98 42 3.96 42 6 C28.14 6 14.28 6 0 6 C0 4.02 0 2.04 0 0 Z " fill="#C35E47" transform="translate(111,93)"/>
<path d="M0 0 C13.86 0 27.72 0 42 0 C42 1.98 42 3.96 42 6 C28.14 6 14.28 6 0 6 C0 4.02 0 2.04 0 0 Z " fill="#C25E47" transform="translate(45,93)"/>
<path d="M0 0 C7.92 0 15.84 0 24 0 C24 1.98 24 3.96 24 6 C16.08 6 8.16 6 0 6 C0 4.02 0 2.04 0 0 Z " fill="#EDC03D" transform="translate(87,63)"/>
<path d="M0 0 C4.89434213 4.09526587 9.70720334 8.26357085 14 13 C14 13.33 14 13.66 14 14 C9.38 14 4.76 14 0 14 C0 9.38 0 4.76 0 0 Z " fill="#CAA334" transform="translate(123,55)"/>
<path d="M0 0 C3.96 0 7.92 0 12 0 C12 1.98 12 3.96 12 6 C8.04 6 4.08 6 0 6 C0 4.02 0 2.04 0 0 Z " fill="#F3643F" transform="translate(93,93)"/>
<path d="M0 0 C2.02054804 1.64169528 4.02043058 3.30911778 6 5 C6 5.33 6 5.66 6 6 C4.02 6 2.04 6 0 6 C0 4.02 0 2.04 0 0 Z " fill="#CDA634" transform="translate(87,63)"/>
</svg>
