<svg width="188" height="195" viewBox="0 0 188 195" fill="none" xmlns="http://www.w3.org/2000/svg">
<path fill-rule="evenodd" clip-rule="evenodd" d="M74 1.49701C38.175 9.49901 9.851 38.065 2.512 73.595C0.299999 84.306 0.304999 110.717 2.521 121.446C6.34 139.935 16.362 157.713 30.175 170.502C38.049 177.792 46.501 183.426 48.09 182.444C48.813 181.997 49.051 182.108 48.676 182.716C47.893 183.981 61.165 190.157 70.022 192.65C79.247 195.246 108.607 195.268 118 192.686C125.716 190.565 145.065 181.243 149.953 177.291C163.627 166.237 171.155 156.918 178.058 142.5C183.862 130.377 186.144 122.086 186.59 111.5C186.776 107.1 186.979 103.275 187.042 103C187.274 101.991 187.017 89.302 186.627 82.5C186.042 72.296 183.586 63.912 177.546 51.5C168.207 32.308 154.687 18.789 135.5 9.45601C129.45 6.51301 121.8 3.36101 118.5 2.45101C110.036 0.117007 82.794 -0.466993 74 1.49701ZM164.729 75.604C164.397 75.936 163.534 75.972 162.813 75.683C162.015 75.364 162.252 75.127 163.417 75.079C164.471 75.036 165.061 75.272 164.729 75.604ZM143.683 99.188C143.364 99.985 143.127 99.748 143.079 98.583C143.036 97.529 143.272 96.939 143.604 97.271C143.936 97.603 143.972 98.466 143.683 99.188Z" fill="#344E5F"/>
<path fill-rule="evenodd" clip-rule="evenodd" d="M74 1.49701C38.175 9.49901 9.851 38.065 2.512 73.595C0.299999 84.306 0.304999 110.717 2.521 121.446C6.34 139.935 16.362 157.713 30.175 170.502C38.049 177.792 46.501 183.426 48.09 182.444C48.813 181.997 49.051 182.108 48.676 182.716C47.893 183.981 61.165 190.157 70.022 192.65C79.247 195.246 108.607 195.268 118 192.686C125.716 190.565 145.065 181.243 149.953 177.291C163.627 166.237 171.155 156.918 178.058 142.5C183.862 130.377 186.144 122.086 186.59 111.5C186.776 107.1 186.979 103.275 187.042 103C187.274 101.991 187.017 89.302 186.627 82.5C186.042 72.296 183.586 63.912 177.546 51.5C168.207 32.308 154.687 18.789 135.5 9.45601C129.45 6.51301 121.8 3.36101 118.5 2.45101C110.036 0.117007 82.794 -0.466993 74 1.49701ZM116 53C117.619 54.619 118 56.333 118 62V69H112H106V66V63H94H82V66V69H76H70V62C70 50.889 69.757 51 94 51C112.667 51 114.133 51.133 116 53ZM164.729 75.604C164.397 75.936 163.534 75.972 162.813 75.683C162.015 75.364 162.252 75.127 163.417 75.079C164.471 75.036 165.061 75.272 164.729 75.604ZM104 89C105.467 90.467 106 92.333 106 96C106 103.542 104.056 105 94 105C83.944 105 82 103.542 82 96C82 88.458 83.944 87 94 87C100.667 87 102.333 87.333 104 89ZM88 96.023C88 98.995 88.01 99 94 99C99.95 99 100 98.976 100 96.107C100 93.248 99.931 93.214 94 93.131L88 93.046V96.023ZM143.683 99.188C143.364 99.985 143.127 99.748 143.079 98.583C143.036 97.529 143.272 96.939 143.604 97.271C143.936 97.603 143.972 98.466 143.683 99.188Z" fill="#797852"/>
<path fill-rule="evenodd" clip-rule="evenodd" d="M74 1.49701C38.175 9.49901 9.851 38.065 2.512 73.595C0.299999 84.306 0.304999 110.717 2.521 121.446C6.34 139.935 16.362 157.713 30.175 170.502C38.049 177.792 46.501 183.426 48.09 182.444C48.813 181.997 49.051 182.108 48.676 182.716C47.893 183.981 61.165 190.157 70.022 192.65C79.247 195.246 108.607 195.268 118 192.686C125.716 190.565 145.065 181.243 149.953 177.291C163.627 166.237 171.155 156.918 178.058 142.5C183.862 130.377 186.144 122.086 186.59 111.5C186.776 107.1 186.979 103.275 187.042 103C187.274 101.991 187.017 89.302 186.627 82.5C186.042 72.296 183.586 63.912 177.546 51.5C168.207 32.308 154.687 18.789 135.5 9.45601C129.45 6.51301 121.8 3.36101 118.5 2.45101C110.036 0.117007 82.794 -0.466993 74 1.49701ZM116.171 52.655C117.627 53.972 118 55.809 118 61.655V69H112H106V66V63H94H82V66V69H76H70V61.829C70 50.686 69.309 51 93.826 51C111.514 51 114.595 51.228 116.171 52.655ZM164.729 75.604C164.397 75.936 163.534 75.972 162.813 75.683C162.015 75.364 162.252 75.127 163.417 75.079C164.471 75.036 165.061 75.272 164.729 75.604ZM104 89C105.467 90.467 106 92.333 106 96C106 103.542 104.056 105 94 105C83.944 105 82 103.542 82 96C82 88.458 83.944 87 94 87C100.667 87 102.333 87.333 104 89ZM88 96.023C88 98.995 88.01 99 94 99C99.95 99 100 98.976 100 96.107C100 93.248 99.931 93.214 94 93.131L88 93.046V96.023ZM143.683 99.188C143.364 99.985 143.127 99.748 143.079 98.583C143.036 97.529 143.272 96.939 143.604 97.271C143.936 97.603 143.972 98.466 143.683 99.188Z" fill="#EDC03D"/>
<path fill-rule="evenodd" clip-rule="evenodd" d="M70.872 52.75C69.629 54.336 69.664 54.371 71.25 53.128C72.916 51.821 73.445 51 72.622 51C72.415 51 71.627 51.788 70.872 52.75ZM115 51.378C115 51.585 115.787 52.373 116.75 53.128C118.336 54.371 118.371 54.336 117.128 52.75C115.821 51.084 115 50.555 115 51.378ZM118 61.775V69H103.298H88.595L85.298 65.804L82 62.608V65.804V69H62.655C45.184 69 43.15 69.177 41.655 70.829C40.187 72.451 40 76.317 40 105.12V137.583L64.25 161.893L88.5 186.204L83 185.558C69.089 183.925 51.922 177.349 40.705 169.355C38.065 167.474 35.368 166.249 34.705 166.629C34.042 167.01 33.829 166.957 34.23 166.513C34.632 166.069 31.988 162.654 28.355 158.924C14.713 144.916 6.993 130.595 2.462 110.887L0.993 104.5L1.403 112C1.628 116.125 2.56 122.425 3.475 126C5.732 134.821 13.679 151.156 19.361 158.654C27.706 169.665 45.254 184.197 48.09 182.444C48.813 181.997 49.051 182.108 48.676 182.716C47.893 183.981 61.165 190.157 70.022 192.65C79.247 195.246 108.607 195.268 118 192.686C125.716 190.565 145.065 181.243 149.953 177.291C163.627 166.237 171.155 156.918 178.058 142.5C183.727 130.658 186.037 122.33 186.502 112.046C186.69 107.896 186.541 105.754 186.172 107.286C185.517 110.001 185.1 109.673 170.036 94.61C161.531 86.105 154.207 79.372 153.761 79.648C153.315 79.923 153.074 79.72 153.225 79.195C153.376 78.671 151.563 76.162 149.195 73.621C144.974 69.091 144.769 69 138.718 69H132.547L125.274 61.775L118 54.55V61.775ZM104 89C105.467 90.467 106 92.333 106 96C106 103.542 104.056 105 94 105C83.944 105 82 103.542 82 96C82 88.458 83.944 87 94 87C100.667 87 102.333 87.333 104 89ZM88 96.023C88 98.995 88.01 99 94 99C99.95 99 100 98.976 100 96.107C100 93.248 99.931 93.214 94 93.131L88 93.046V96.023ZM143.683 99.188C143.364 99.985 143.127 99.748 143.079 98.583C143.036 97.529 143.272 96.939 143.604 97.271C143.936 97.603 143.972 98.466 143.683 99.188Z" fill="#CAA334"/>
<path fill-rule="evenodd" clip-rule="evenodd" d="M41.655 70.829C40.186 72.451 40 76.32 40 105.174C40 135.448 40.127 137.805 41.835 139.351C43.496 140.854 48.484 141.009 94.203 140.981C141.352 140.952 144.843 140.831 146.345 139.171C147.755 137.614 147.957 133.362 147.97 105.017C147.984 76.339 147.797 72.433 146.338 70.821C144.785 69.105 141.755 69 94 69C46.162 69 43.217 69.103 41.655 70.829ZM104 89C105.467 90.467 106 92.333 106 96C106 103.542 104.056 105 94 105C83.944 105 82 103.542 82 96C82 88.458 83.944 87 94 87C100.667 87 102.333 87.333 104 89ZM88 96.023C88 98.995 88.01 99 94 99C99.95 99 100 98.976 100 96.107C100 93.248 99.931 93.214 94 93.131L88 93.046V96.023ZM143.683 99.188C143.364 99.985 143.127 99.748 143.079 98.583C143.036 97.529 143.272 96.939 143.604 97.271C143.936 97.603 143.972 98.466 143.683 99.188Z" fill="#F1863E"/>
<path fill-rule="evenodd" clip-rule="evenodd" d="M42 71C40.083 72.917 40 74.333 40 105C40 135.701 40.081 137.081 42.006 139.006C43.962 140.962 45.271 141.012 94.032 140.981C142.286 140.95 144.12 140.88 146.003 138.997C147.857 137.143 147.956 135.439 147.97 105.015C147.984 74.348 147.9 72.9 145.993 70.993C144.056 69.056 142.604 69 94 69C45.333 69 43.947 69.053 42 71ZM104 89C105.467 90.467 106 92.333 106 96C106 103.542 104.056 105 94 105C83.944 105 82 103.542 82 96C82 88.458 83.944 87 94 87C100.667 87 102.333 87.333 104 89ZM88 96.023C88 98.995 88.01 99 94 99C99.95 99 100 98.976 100 96.107C100 93.248 99.931 93.214 94 93.131L88 93.046V96.023ZM143.683 99.188C143.364 99.985 143.127 99.748 143.079 98.583C143.036 97.529 143.272 96.939 143.604 97.271C143.936 97.603 143.972 98.466 143.683 99.188Z" fill="#F3643F"/>
<path fill-rule="evenodd" clip-rule="evenodd" d="M82.98 88.524C81.142 90.739 82.188 90.994 84.25 88.833C85.213 87.825 85.605 87 85.122 87C84.64 87 83.676 87.686 82.98 88.524ZM103.75 88.833C104.713 89.842 105.677 90.528 105.893 90.357C106.483 89.892 103.886 87 102.878 87C102.395 87 102.787 87.825 103.75 88.833ZM40 96.1V99H56.3C67.955 99 72.984 98.644 73.947 97.75C75.024 96.75 75.152 96.75 74.588 97.75C74.074 98.661 74.984 99 77.941 99C81.79 99 82 98.844 82 95.98V92.961L61 93.08L40 93.199V96.1ZM106 96.037V99H124.417C138.214 99 142.96 98.686 143.338 97.75C143.741 96.75 143.858 96.75 143.921 97.75C143.964 98.438 144.9 99 146 99C147.543 99 148 98.333 148 96.084V93.169L127 93.122L106 93.075V96.037ZM82 101.878C82 102.886 84.892 105.483 85.357 104.893C85.528 104.677 84.842 103.713 83.833 102.75C82.825 101.787 82 101.395 82 101.878ZM103.75 103.167C102.787 104.175 102.395 105 102.878 105C103.886 105 106.483 102.108 105.893 101.643C105.677 101.472 104.713 102.158 103.75 103.167Z" fill="#C35E47"/>
</svg>
